<?xml version="1.0" standalone="no"?><!DOCTYPE svg PUBLIC "-//W3C//DTD SVG 1.1//EN" "http://www.w3.org/Graphics/SVG/1.1/DTD/svg11.dtd"><svg xmlns:xlink="http://www.w3.org/1999/xlink" version="1.1" style="font-family:'lucida grande', 'lucida sans unicode', arial, helvetica, sans-serif;font-size:12px;" xmlns="http://www.w3.org/2000/svg" width="600" height="400"><desc>Created with Highcharts 4.0.1</desc><defs><clipPath id="highcharts-7"><rect x="0" y="0" width="525" height="269"></rect></clipPath></defs><rect x="0" y="0" width="600" height="400" strokeWidth="0" fill="#FFFFFF" class=" highcharts-background"></rect><g class="highcharts-grid" ></g><g class="highcharts-grid" ><path fill="none" d="M 65 58.5 L 590 58.5" stroke="#C0C0C0" stroke-width="1"  opacity="1"></path><path fill="none" d="M 65 113.5 L 590 113.5" stroke="#C0C0C0" stroke-width="1"  opacity="1"></path><path fill="none" d="M 65 167.5 L 590 167.5" stroke="#C0C0C0" stroke-width="1"  opacity="1"></path><path fill="none" d="M 65 220.5 L 590 220.5" stroke="#C0C0C0" stroke-width="1"  opacity="1"></path><path fill="none" d="M 65 274.5 L 590 274.5" stroke="#C0C0C0" stroke-width="1"  opacity="1"></path><path fill="none" d="M 65 328.5 L 590 328.5" stroke="#C0C0C0" stroke-width="1"  opacity="1"></path></g><g class="highcharts-axis" ><path fill="none" d="M 274.5 328 L 274.5 338" stroke="#C0D0E0" stroke-width="1" opacity="1"></path><path fill="none" d="M 379.5 328 L 379.5 338" stroke="#C0D0E0" stroke-width="1" opacity="1"></path><path fill="none" d="M 484.5 328 L 484.5 338" stroke="#C0D0E0" stroke-width="1" opacity="1"></path><path fill="none" d="M 590.5 328 L 590.5 338" stroke="#C0D0E0" stroke-width="1" opacity="1"></path><path fill="none" d="M 169.5 328 L 169.5 338" stroke="#C0D0E0" stroke-width="1" opacity="1"></path><path fill="none" d="M 64.5 328 L 64.5 338" stroke="#C0D0E0" stroke-width="1" opacity="undefined"></path><path fill="none" d="M 65 328.5 L 590 328.5" stroke="#C0D0E0" stroke-width="1"  visibility="visible"></path></g><g class="highcharts-axis" ><text x="24.09375"  text-anchor="middle" transform="translate(0,0) rotate(270 24.09375 193.5)" class=" highcharts-yaxis-title" style="color:#707070;fill:#707070;" visibility="visible" y="193.5"><tspan>Porcentaje (°C)</tspan></text></g><g class="highcharts-series-group" ><g class="highcharts-series" visibility="visible"  transform="translate(65,59) scale(1 1)" clip-path="url(#highcharts-7)"><path fill="none" d="M 52.5 126.43 L 157.5 86.61800000000002 L 262.5 58.641999999999996 L 367.5 195.294 L 472.5 55.952" stroke="#7cb5ec" stroke-width="2"  stroke-linejoin="round" stroke-linecap="round"></path></g><g class="highcharts-markers" visibility="visible"  transform="translate(65,59) scale(1 1)" clip-path="none"><path fill="#7cb5ec" d="M 472 51.952 C 477.328 51.952 477.328 59.952 472 59.952 C 466.672 59.952 466.672 51.952 472 51.952 Z" stroke="#FFFFFF" stroke-width="0.00001"></path><path fill="#7cb5ec" d="M 367 191.294 C 372.328 191.294 372.328 199.294 367 199.294 C 361.672 199.294 361.672 191.294 367 191.294 Z" stroke="#FFFFFF" stroke-width="0.00001"></path><path fill="#7cb5ec" d="M 262 54.641999999999996 C 267.328 54.641999999999996 267.328 62.641999999999996 262 62.641999999999996 C 256.672 62.641999999999996 256.672 54.641999999999996 262 54.641999999999996 Z" stroke="#FFFFFF" stroke-width="0.00001"></path><path fill="#7cb5ec" d="M 157 82.61800000000002 C 162.328 82.61800000000002 162.328 90.61800000000002 157 90.61800000000002 C 151.672 90.61800000000002 151.672 82.61800000000002 157 82.61800000000002 Z" stroke="#FFFFFF" stroke-width="0.00001"></path><path fill="#7cb5ec" d="M 52 122.43 C 57.328 122.43 57.328 130.43 52 130.43 C 46.672 130.43 46.672 122.43 52 122.43 Z" stroke="#FFFFFF" stroke-width="0.00001"></path></g><g class="highcharts-series" visibility="visible"  transform="translate(65,59) scale(1 1)" clip-path="url(#highcharts-7)"><path fill="none" d="M 52.5 176.464 L 157.5 109.75200000000001 L 262.5 152.792 L 367.5 38.73600000000002 L 472.5 22.596000000000032" stroke="#434348" stroke-width="2"  stroke-linejoin="round" stroke-linecap="round"></path></g><g class="highcharts-markers" visibility="visible"  transform="translate(65,59) scale(1 1)" clip-path="none"><path fill="#434348" d="M 472 18.596000000000032 L 476 22.596000000000032 472 26.596000000000032 468 22.596000000000032 Z" stroke="#FFFFFF" stroke-width="0.00001"></path><path fill="#434348" d="M 367 34.73600000000002 L 371 38.73600000000002 367 42.73600000000002 363 38.73600000000002 Z" stroke="#FFFFFF" stroke-width="0.00001"></path><path fill="#434348" d="M 262 148.792 L 266 152.792 262 156.792 258 152.792 Z" stroke="#FFFFFF" stroke-width="0.00001"></path><path fill="#434348" d="M 157 105.75200000000001 L 161 109.75200000000001 157 113.75200000000001 153 109.75200000000001 Z" stroke="#FFFFFF" stroke-width="0.00001"></path><path fill="#434348" d="M 52 172.464 L 56 176.464 52 180.464 48 176.464 Z" stroke="#FFFFFF" stroke-width="0.00001"></path></g><g class="highcharts-series" visibility="visible"  transform="translate(65,59) scale(1 1)" clip-path="url(#highcharts-7)"><path fill="none" d="M 52.5 244.252 L 157.5 220.042 L 262.5 223.27 L 367.5 205.516 L 472.5 219.50400000000002" stroke="#90ed7d" stroke-width="2"  stroke-linejoin="round" stroke-linecap="round"></path></g><g class="highcharts-markers" visibility="visible"  transform="translate(65,59) scale(1 1)" clip-path="none"><path fill="#90ed7d" d="M 468 215.50400000000002 L 476 215.50400000000002 476 223.50400000000002 468 223.50400000000002 Z" stroke="#FFFFFF" stroke-width="0.00001"></path><path fill="#90ed7d" d="M 363 201.516 L 371 201.516 371 209.516 363 209.516 Z" stroke="#FFFFFF" stroke-width="0.00001"></path><path fill="#90ed7d" d="M 258 219.27 L 266 219.27 266 227.27 258 227.27 Z" stroke="#FFFFFF" stroke-width="0.00001"></path><path fill="#90ed7d" d="M 153 216.042 L 161 216.042 161 224.042 153 224.042 Z" stroke="#FFFFFF" stroke-width="0.00001"></path><path fill="#90ed7d" d="M 48 240.252 L 56 240.252 56 248.252 48 248.252 Z" stroke="#FFFFFF" stroke-width="0.00001"></path></g></g><text x="300" text-anchor="middle" class="highcharts-title"  style="color:#333333;font-size:18px;fill:#333333;width:536px;" y="25"><tspan>Estimación del tamaño</tspan></text><text x="300" text-anchor="middle" class="highcharts-subtitle"  style="color:#555555;fill:#555555;width:536px;" y="45"><tspan>Diferencia de porcentajes</tspan></text><g class="highcharts-data-labels" visibility="visible"  transform="translate(65,59) scale(1 1)" opacity="1"><g  style="cursor:default;" transform="translate(39,108)"><text x="3"  style="font-size:11px;color:#606060;fill:#606060;" y="15">16.5</text></g><g  style="cursor:default;" transform="translate(144,69)"><text x="3"  style="font-size:11px;color:#606060;fill:#606060;" y="15">23.9</text></g><g  style="cursor:default;" transform="translate(249,41)"><text x="3"  style="font-size:11px;color:#606060;fill:#606060;" y="15">29.1</text></g><g  style="cursor:default;" transform="translate(357,177)"><text x="3"  style="font-size:11px;color:#606060;fill:#606060;" y="15">3.7</text></g><g  style="cursor:default;" transform="translate(459,38)"><text x="3"  style="font-size:11px;color:#606060;fill:#606060;" y="15">29.6</text></g></g><g class="highcharts-data-labels" visibility="visible"  transform="translate(65,59) scale(1 1)" opacity="1"><g  style="cursor:default;" transform="translate(42,158)"><text x="3"  style="font-size:11px;color:#606060;fill:#606060;" y="15">7.2</text></g><g  style="cursor:default;" transform="translate(144,92)"><text x="3"  style="font-size:11px;color:#606060;fill:#606060;" y="15">19.6</text></g><g  style="cursor:default;" transform="translate(249,135)"><text x="3"  style="font-size:11px;color:#606060;fill:#606060;" y="15">11.6</text></g><g  style="cursor:default;" transform="translate(354,21)"><text x="3"  style="font-size:11px;color:#606060;fill:#606060;" y="15">32.8</text></g><g  style="cursor:default;" transform="translate(459,5)"><text x="3"  style="font-size:11px;color:#606060;fill:#606060;" y="15">35.8</text></g></g><g class="highcharts-data-labels" visibility="visible"  transform="translate(65,59) scale(1 1)" opacity="1"><g  style="cursor:default;" transform="translate(40,226)"><text x="3"  style="font-size:11px;color:#606060;fill:#606060;" y="15">-5.4</text></g><g  style="cursor:default;" transform="translate(145,202)"><text x="3"  style="font-size:11px;color:#606060;fill:#606060;" y="15">-0.9</text></g><g  style="cursor:default;" transform="translate(250,205)"><text x="3"  style="font-size:11px;color:#606060;fill:#606060;" y="15">-1.5</text></g><g  style="cursor:default;" transform="translate(357,188)"><text x="3"  style="font-size:11px;color:#606060;fill:#606060;" y="15">1.8</text></g><g  style="cursor:default;" transform="translate(460,202)"><text x="3"  style="font-size:11px;color:#606060;fill:#606060;" y="15">-0.8</text></g></g><g class="highcharts-legend"  transform="translate(86,368)"><g ><g><g class="highcharts-legend-item"  transform="translate(8,3)"><path fill="none" d="M 0 11 L 16 11" stroke-width="2" stroke="#7cb5ec"></path><path fill="#7cb5ec" d="M 8 7 C 13.328 7 13.328 15 8 15 C 2.6719999999999997 15 2.6719999999999997 7 8 7 Z" stroke="#FFFFFF" stroke-width="0.00001"></path><text x="21" y="15" style="color:#333333;font-size:12px;font-weight:bold;cursor:pointer;fill:#333333;" text-anchor="start" ><tspan>Monedas ausentes</tspan></text></g><g class="highcharts-legend-item"  transform="translate(156.375,3)"><path fill="none" d="M 0 11 L 16 11" stroke-width="2" stroke="#434348"></path><path fill="#434348" d="M 8 7 L 12 11 8 15 4 11 Z" stroke="#FFFFFF" stroke-width="0.00001"></path><text x="21" y="15" style="color:#333333;font-size:12px;font-weight:bold;cursor:pointer;fill:#333333;" text-anchor="start" ><tspan>Monedas presentes</tspan></text></g><g class="highcharts-legend-item"  transform="translate(309.421875,3)"><path fill="none" d="M 0 11 L 16 11" stroke-width="2" stroke="#90ed7d"></path><path fill="#90ed7d" d="M 4 7 L 12 7 12 15 4 15 Z" stroke="#FFFFFF" stroke-width="0.00001"></path><text x="21" y="15" style="color:#333333;font-size:12px;font-weight:bold;cursor:pointer;fill:#333333;" text-anchor="start" ><tspan>Discos de cartón</tspan></text></g></g></g></g><g class="highcharts-axis-labels highcharts-xaxis-labels" ><text x="117.5" text-anchor="middle" style="width:85px;color:#606060;cursor:default;font-size:11px;fill:#606060;" y="348" opacity="1">1c</text><text x="222.5" text-anchor="middle" style="width:85px;color:#606060;cursor:default;font-size:11px;fill:#606060;" y="348" opacity="1">5c</text><text x="327.5" text-anchor="middle" style="width:85px;color:#606060;cursor:default;font-size:11px;fill:#606060;" y="348" opacity="1">10c</text><text x="432.5" text-anchor="middle" style="width:85px;color:#606060;cursor:default;font-size:11px;fill:#606060;" y="348" opacity="1">25c</text><text x="537.5" text-anchor="middle" style="width:85px;color:#606060;cursor:default;font-size:11px;fill:#606060;" y="348" opacity="1">50c</text></g><g class="highcharts-axis-labels highcharts-yaxis-labels" ><text x="50" text-anchor="end" style="width:178px;color:#606060;cursor:default;font-size:11px;fill:#606060;" y="334" opacity="1">-10</text><text x="50" text-anchor="end" style="width:178px;color:#606060;cursor:default;font-size:11px;fill:#606060;" y="280.2" opacity="1">0</text><text x="50" text-anchor="end" style="width:178px;color:#606060;cursor:default;font-size:11px;fill:#606060;" y="226.39999999999998" opacity="1">10</text><text x="50" text-anchor="end" style="width:178px;color:#606060;cursor:default;font-size:11px;fill:#606060;" y="172.6" opacity="1">20</text><text x="50" text-anchor="end" style="width:178px;color:#606060;cursor:default;font-size:11px;fill:#606060;" y="118.80000000000001" opacity="1">30</text><text x="50" text-anchor="end" style="width:178px;color:#606060;cursor:default;font-size:11px;fill:#606060;" y="65" opacity="1">40</text></g><g class="highcharts-tooltip"  style="cursor:default;padding:0;white-space:nowrap;" transform="translate(0,-9999)"><path fill="none" d="M 3 0 L 13 0 C 16 0 16 0 16 3 L 16 13 C 16 16 16 16 13 16 L 3 16 C 0 16 0 16 0 13 L 0 3 C 0 0 0 0 3 0" stroke-width="5"  stroke="black" stroke-opacity="0.049999999999999996" transform="translate(1, 1)"></path><path fill="none" d="M 3 0 L 13 0 C 16 0 16 0 16 3 L 16 13 C 16 16 16 16 13 16 L 3 16 C 0 16 0 16 0 13 L 0 3 C 0 0 0 0 3 0" stroke-width="3"  stroke="black" stroke-opacity="0.09999999999999999" transform="translate(1, 1)"></path><path fill="none" d="M 3 0 L 13 0 C 16 0 16 0 16 3 L 16 13 C 16 16 16 16 13 16 L 3 16 C 0 16 0 16 0 13 L 0 3 C 0 0 0 0 3 0" stroke-width="1"  stroke="black" stroke-opacity="0.15" transform="translate(1, 1)"></path><path fill="rgba(249, 249, 249, .85)" d="M 3 0 L 13 0 C 16 0 16 0 16 3 L 16 13 C 16 16 16 16 13 16 L 3 16 C 0 16 0 16 0 13 L 0 3 C 0 0 0 0 3 0" stroke-width="1"></path><text x="8"  style="font-size:12px;color:#333333;fill:#333333;" y="21"></text></g><text x="590" text-anchor="end"  style="cursor:pointer;color:#909090;font-size:9px;fill:#909090;" y="395">Highcharts.com</text></svg>