<svg class="marks" width="440" height="240" version="1.1" xmlns="http://www.w3.org/2000/svg" xmlns:xlink="http://www.w3.org/1999/xlink"><g transform="translate(30,10)"><g class="mark-group"><g transform="translate(0,0)"><rect class="background" width="400" height="200" style="fill: none;"></rect><g class="mark-group"><g transform="translate(0,200)"><rect class="background" width="0" height="0" style="pointer-events: none; fill: none;"></rect><g class="mark-rule" style="pointer-events: none;"></g><g class="mark-rule" style="pointer-events: none;"><line transform="translate(10.5,0)" x2="0" y2="6" style="fill: none; stroke: #000; stroke-width: 1; opacity: 1;"></line><line transform="translate(30.5,0)" x2="0" y2="6" style="fill: none; stroke: #000; stroke-width: 1; opacity: 1;"></line><line transform="translate(50.5,0)" x2="0" y2="6" style="fill: none; stroke: #000; stroke-width: 1; opacity: 1;"></line><line transform="translate(70.5,0)" x2="0" y2="6" style="fill: none; stroke: #000; stroke-width: 1; opacity: 1;"></line><line transform="translate(90.5,0)" x2="0" y2="6" style="fill: none; stroke: #000; stroke-width: 1; opacity: 1;"></line><line transform="translate(110.5,0)" x2="0" y2="6" style="fill: none; stroke: #000; stroke-width: 1; opacity: 1;"></line><line transform="translate(130.5,0)" x2="0" y2="6" style="fill: none; stroke: #000; stroke-width: 1; opacity: 1;"></line><line transform="translate(150.5,0)" x2="0" y2="6" style="fill: none; stroke: #000; stroke-width: 1; opacity: 1;"></line><line transform="translate(170.5,0)" x2="0" y2="6" style="fill: none; stroke: #000; stroke-width: 1; opacity: 1;"></line><line transform="translate(190.5,0)" x2="0" y2="6" style="fill: none; stroke: #000; stroke-width: 1; opacity: 1;"></line><line transform="translate(210.5,0)" x2="0" y2="6" style="fill: none; stroke: #000; stroke-width: 1; opacity: 1;"></line><line transform="translate(230.5,0)" x2="0" y2="6" style="fill: none; stroke: #000; stroke-width: 1; opacity: 1;"></line><line transform="translate(250.5,0)" x2="0" y2="6" style="fill: none; stroke: #000; stroke-width: 1; opacity: 1;"></line><line transform="translate(270.5,0)" x2="0" y2="6" style="fill: none; stroke: #000; stroke-width: 1; opacity: 1;"></line><line transform="translate(290.5,0)" x2="0" y2="6" style="fill: none; stroke: #000; stroke-width: 1; opacity: 1;"></line><line transform="translate(310.5,0)" x2="0" y2="6" style="fill: none; stroke: #000; stroke-width: 1; opacity: 1;"></line><line transform="translate(330.5,0)" x2="0" y2="6" style="fill: none; stroke: #000; stroke-width: 1; opacity: 1;"></line><line transform="translate(350.5,0)" x2="0" y2="6" style="fill: none; stroke: #000; stroke-width: 1; opacity: 1;"></line><line transform="translate(370.5,0)" x2="0" y2="6" style="fill: none; stroke: #000; stroke-width: 1; opacity: 1;"></line><line transform="translate(390.5,0)" x2="0" y2="6" style="fill: none; stroke: #000; stroke-width: 1; opacity: 1;"></line></g><g class="mark-rule" style="pointer-events: none;"></g><g class="mark-text"><text text-anchor="middle" transform="translate(10.5,19)" style="font: 11px sans-serif; fill: #000; opacity: 1;">1</text><text text-anchor="middle" transform="translate(30.5,19)" style="font: 11px sans-serif; fill: #000; opacity: 1;">2</text><text text-anchor="middle" transform="translate(50.5,19)" style="font: 11px sans-serif; fill: #000; opacity: 1;">3</text><text text-anchor="middle" transform="translate(70.5,19)" style="font: 11px sans-serif; fill: #000; opacity: 1;">4</text><text text-anchor="middle" transform="translate(90.5,19)" style="font: 11px sans-serif; fill: #000; opacity: 1;">5</text><text text-anchor="middle" transform="translate(110.5,19)" style="font: 11px sans-serif; fill: #000; opacity: 1;">6</text><text text-anchor="middle" transform="translate(130.5,19)" style="font: 11px sans-serif; fill: #000; opacity: 1;">7</text><text text-anchor="middle" transform="translate(150.5,19)" style="font: 11px sans-serif; fill: #000; opacity: 1;">8</text><text text-anchor="middle" transform="translate(170.5,19)" style="font: 11px sans-serif; fill: #000; opacity: 1;">9</text><text text-anchor="middle" transform="translate(190.5,19)" style="font: 11px sans-serif; fill: #000; opacity: 1;">10</text><text text-anchor="middle" transform="translate(210.5,19)" style="font: 11px sans-serif; fill: #000; opacity: 1;">11</text><text text-anchor="middle" transform="translate(230.5,19)" style="font: 11px sans-serif; fill: #000; opacity: 1;">12</text><text text-anchor="middle" transform="translate(250.5,19)" style="font: 11px sans-serif; fill: #000; opacity: 1;">13</text><text text-anchor="middle" transform="translate(270.5,19)" style="font: 11px sans-serif; fill: #000; opacity: 1;">14</text><text text-anchor="middle" transform="translate(290.5,19)" style="font: 11px sans-serif; fill: #000; opacity: 1;">15</text><text text-anchor="middle" transform="translate(310.5,19)" style="font: 11px sans-serif; fill: #000; opacity: 1;">16</text><text text-anchor="middle" transform="translate(330.5,19)" style="font: 11px sans-serif; fill: #000; opacity: 1;">17</text><text text-anchor="middle" transform="translate(350.5,19)" style="font: 11px sans-serif; fill: #000; opacity: 1;">18</text><text text-anchor="middle" transform="translate(370.5,19)" style="font: 11px sans-serif; fill: #000; opacity: 1;">19</text><text text-anchor="middle" transform="translate(390.5,19)" style="font: 11px sans-serif; fill: #000; opacity: 1;">20</text></g><g class="mark-path" style="pointer-events: none;"><path transform="translate(0.5,0.5)" d="M0,6V0H400V6" style="fill: none; stroke: #000; stroke-width: 1;"></path></g><g class="mark-text"></g></g></g><g class="mark-group"><g transform="translate(0,0)"><rect class="background" width="0" height="0" style="pointer-events: none; fill: none;"></rect><g class="mark-rule" style="pointer-events: none;"></g><g class="mark-rule" style="pointer-events: none;"><line transform="translate(-6,200.5)" x2="6" y2="0" style="fill: none; stroke: #000; stroke-width: 1; opacity: 1;"></line><line transform="translate(-6,180.5)" x2="6" y2="0" style="fill: none; stroke: #000; stroke-width: 1; opacity: 1;"></line><line transform="translate(-6,160.5)" x2="6" y2="0" style="fill: none; stroke: #000; stroke-width: 1; opacity: 1;"></line><line transform="translate(-6,140.5)" x2="6" y2="0" style="fill: none; stroke: #000; stroke-width: 1; opacity: 1;"></line><line transform="translate(-6,120.5)" x2="6" y2="0" style="fill: none; stroke: #000; stroke-width: 1; opacity: 1;"></line><line transform="translate(-6,100.5)" x2="6" y2="0" style="fill: none; stroke: #000; stroke-width: 1; opacity: 1;"></line><line transform="translate(-6,80.5)" x2="6" y2="0" style="fill: none; stroke: #000; stroke-width: 1; opacity: 1;"></line><line transform="translate(-6,60.50000000000001)" x2="6" y2="0" style="fill: none; stroke: #000; stroke-width: 1; opacity: 1;"></line><line transform="translate(-6,40.49999999999999)" x2="6" y2="0" style="fill: none; stroke: #000; stroke-width: 1; opacity: 1;"></line><line transform="translate(-6,20.499999999999996)" x2="6" y2="0" style="fill: none; stroke: #000; stroke-width: 1; opacity: 1;"></line><line transform="translate(-6,0.5)" x2="6" y2="0" style="fill: none; stroke: #000; stroke-width: 1; opacity: 1;"></line></g><g class="mark-rule" style="pointer-events: none;"></g><g class="mark-text"><text text-anchor="end" transform="translate(-9,203.5)" style="font: 11px sans-serif; fill: #000; opacity: 1;">0</text><text text-anchor="end" transform="translate(-9,183.5)" style="font: 11px sans-serif; fill: #000; opacity: 1;">10</text><text text-anchor="end" transform="translate(-9,163.5)" style="font: 11px sans-serif; fill: #000; opacity: 1;">20</text><text text-anchor="end" transform="translate(-9,143.5)" style="font: 11px sans-serif; fill: #000; opacity: 1;">30</text><text text-anchor="end" transform="translate(-9,123.5)" style="font: 11px sans-serif; fill: #000; opacity: 1;">40</text><text text-anchor="end" transform="translate(-9,103.5)" style="font: 11px sans-serif; fill: #000; opacity: 1;">50</text><text text-anchor="end" transform="translate(-9,83.5)" style="font: 11px sans-serif; fill: #000; opacity: 1;">60</text><text text-anchor="end" transform="translate(-9,63.50000000000001)" style="font: 11px sans-serif; fill: #000; opacity: 1;">70</text><text text-anchor="end" transform="translate(-9,43.49999999999999)" style="font: 11px sans-serif; fill: #000; opacity: 1;">80</text><text text-anchor="end" transform="translate(-9,23.499999999999996)" style="font: 11px sans-serif; fill: #000; opacity: 1;">90</text><text text-anchor="end" transform="translate(-9,3.5)" style="font: 11px sans-serif; fill: #000; opacity: 1;">100</text></g><g class="mark-path" style="pointer-events: none;"><path transform="translate(0.5,0.5)" d="M-6,0H0V200H-6" style="fill: none; stroke: #000; stroke-width: 1;"></path></g><g class="mark-text"></g></g></g><g class="mark-rect"><rect transform="translate(0,144)" width="19" height="56" style="fill: steelblue;"></rect><rect transform="translate(20,89.99999999999999)" width="19" height="110.00000000000001" style="fill: steelblue;"></rect><rect transform="translate(40,114.00000000000001)" width="19" height="85.99999999999999" style="fill: steelblue;"></rect><rect transform="translate(60,17.999999999999993)" width="19" height="182" style="fill: steelblue;"></rect><rect transform="translate(80,37.999999999999986)" width="19" height="162" style="fill: steelblue;"></rect><rect transform="translate(100,94)" width="19" height="106" style="fill: steelblue;"></rect><rect transform="translate(120,162)" width="19" height="38" style="fill: steelblue;"></rect><rect transform="translate(140,26)" width="19" height="174" style="fill: steelblue;"></rect><rect transform="translate(160,96)" width="19" height="104" style="fill: steelblue;"></rect><rect transform="translate(180,104)" width="19" height="96" style="fill: steelblue;"></rect><rect transform="translate(200,152)" width="19" height="48" style="fill: steelblue;"></rect><rect transform="translate(220,102)" width="19" height="98" style="fill: steelblue;"></rect><rect transform="translate(240,26)" width="19" height="174" style="fill: steelblue;"></rect><rect transform="translate(260,68)" width="19" height="132" style="fill: steelblue;"></rect><rect transform="translate(280,166)" width="19" height="34" style="fill: steelblue;"></rect><rect transform="translate(300,146)" width="19" height="54" style="fill: steelblue;"></rect><rect transform="translate(320,63.99999999999999)" width="19" height="136" style="fill: steelblue;"></rect><rect transform="translate(340,168)" width="19" height="32" style="fill: steelblue;"></rect><rect transform="translate(360,102)" width="19" height="98" style="fill: steelblue;"></rect><rect transform="translate(380,170)" width="19" height="30" style="fill: steelblue;"></rect></g></g></g></g></svg>