<?xml version="1.0" encoding="UTF-8"?>
<svg xmlns:xlink="http://www.w3.org/1999/xlink" xmlns="http://www.w3.org/2000/svg" fill-opacity="1" color-rendering="auto" color-interpolation="auto" text-rendering="auto" stroke="black" stroke-linecap="square" width="972" stroke-miterlimit="10" shape-rendering="auto" stroke-opacity="1" fill="black" stroke-dasharray="none" font-weight="normal" stroke-width="1" height="834" font-family="'Dialog'" font-style="normal" stroke-linejoin="miter" font-size="12" stroke-dashoffset="0" image-rendering="auto">
<!--Generated by ySVG-->
<defs id="genericDefs"/>
<g>
<defs id="defs1">
<clipPath clipPathUnits="userSpaceOnUse" id="clipPath1">
<path d="M0 0 L972 0 L972 834 L0 834 L0 0 Z"/>
</clipPath>
<clipPath clipPathUnits="userSpaceOnUse" id="clipPath2">
<path d="M-503 -9 L469 -9 L469 825 L-503 825 L-503 -9 Z"/>
</clipPath>
<clipPath clipPathUnits="userSpaceOnUse" id="clipPath3">
<path d="M508.6722 -616.2399 L1075.4805 173.388 L397.9601 659.7236 L-168.8481 -129.9044 L508.6722 -616.2399 Z"/>
</clipPath>
<clipPath clipPathUnits="userSpaceOnUse" id="clipPath4">
<path d="M589.5661 -78.66 L-349.6452 171.6718 L-564.4361 -634.1948 L374.7752 -884.5266 L589.5661 -78.66 Z"/>
</clipPath>
<clipPath clipPathUnits="userSpaceOnUse" id="clipPath5">
<path d="M958.5207 107.3468 L108.4078 578.6132 L-295.9504 -150.8047 L554.1625 -622.071 L958.5207 107.3468 Z"/>
</clipPath>
<clipPath clipPathUnits="userSpaceOnUse" id="clipPath6">
<path d="M606.207 -18.8015 L-353.9349 132.5641 L-483.8103 -691.2614 L476.3315 -842.627 L606.207 -18.8015 Z"/>
</clipPath>
<clipPath clipPathUnits="userSpaceOnUse" id="clipPath7">
<path d="M713.5427 588.5447 L-240.9707 772.0886 L-398.4558 -46.9074 L556.0574 -230.4513 L713.5427 588.5447 Z"/>
</clipPath>
<clipPath clipPathUnits="userSpaceOnUse" id="clipPath8">
<path d="M954.9727 173.2051 L73.0344 581.8234 L-277.5701 -174.9015 L604.3682 -583.5197 L954.9727 173.2051 Z"/>
</clipPath>
<clipPath clipPathUnits="userSpaceOnUse" id="clipPath9">
<path d="M610.2931 -11.5581 L-351.718 127.4337 L-470.9763 -697.9955 L491.0347 -836.9873 L610.2931 -11.5581 Z"/>
</clipPath>
<clipPath clipPathUnits="userSpaceOnUse" id="clipPath10">
<path d="M952.6019 215.2199 L52.3895 581.8283 L-262.1695 -190.5761 L638.0428 -557.1845 L952.6019 215.2199 Z"/>
</clipPath>
<clipPath clipPathUnits="userSpaceOnUse" id="clipPath11">
<path d="M614.2153 -8.879 L-348.5159 125.034 L-463.4166 -701.0131 L499.3145 -834.9261 L614.2153 -8.879 Z"/>
</clipPath>
<clipPath clipPathUnits="userSpaceOnUse" id="clipPath12">
<path d="M309.772 162.1641 L-660.0239 227.5854 L-716.1569 -604.5234 L253.639 -669.9446 L309.772 162.1641 Z"/>
</clipPath>
<clipPath clipPathUnits="userSpaceOnUse" id="clipPath13">
<path d="M-537.2516 -126.1367 L430.569 -36.0962 L353.312 794.3177 L-614.5086 704.2772 L-537.2516 -126.1367 Z"/>
</clipPath>
<clipPath clipPathUnits="userSpaceOnUse" id="clipPath14">
<path d="M-219.7699 462.9987 L-225.8166 -508.9825 L608.1673 -514.1707 L614.214 457.8105 L-219.7699 462.9987 Z"/>
</clipPath>
<clipPath clipPathUnits="userSpaceOnUse" id="clipPath15">
<path d="M580.3057 -111.3223 L-342.893 192.7964 L-603.8343 -599.3309 L319.3644 -903.4495 L580.3057 -111.3223 Z"/>
</clipPath>
<clipPath clipPathUnits="userSpaceOnUse" id="clipPath16">
<path d="M305.8264 160.2728 L-663.4639 232.8006 L-725.6946 -598.8744 L243.5957 -671.4022 L305.8264 160.2728 Z"/>
</clipPath>
<clipPath clipPathUnits="userSpaceOnUse" id="clipPath17">
<path d="M523.8853 226.7744 L-440.7384 346.2951 L-543.2901 -481.3759 L421.3335 -600.8965 L523.8853 226.7744 Z"/>
</clipPath>
<clipPath clipPathUnits="userSpaceOnUse" id="clipPath18">
<path d="M-164.5764 -254.2651 L748.8094 78.166 L463.5753 861.8735 L-449.8105 529.4424 L-164.5764 -254.2651 Z"/>
</clipPath>
<clipPath clipPathUnits="userSpaceOnUse" id="clipPath19">
<path d="M-148.104 -268.9083 L735.3412 136.4416 L387.5411 894.4594 L-495.9041 489.1096 L-148.104 -268.9083 Z"/>
</clipPath>
<clipPath clipPathUnits="userSpaceOnUse" id="clipPath20">
<path d="M-402.4099 -457.7536 L556.4467 -298.4488 L419.7592 524.2738 L-539.0974 364.969 L-402.4099 -457.7536 Z"/>
</clipPath>
<clipPath clipPathUnits="userSpaceOnUse" id="clipPath21">
<path d="M-362.6395 -371.7895 L588.6829 -172.3657 L417.5722 643.8924 L-533.7501 444.4685 L-362.6395 -371.7895 Z"/>
</clipPath>
<clipPath clipPathUnits="userSpaceOnUse" id="clipPath22">
<path d="M-48.7201 -555.308 L819.6768 -118.6492 L445.0127 626.4567 L-423.3841 189.7979 L-48.7201 -555.308 Z"/>
</clipPath>
<clipPath clipPathUnits="userSpaceOnUse" id="clipPath23">
<path d="M-101.8078 -294.014 L694.8448 262.8779 L217.0178 946.4255 L-579.6348 389.5336 L-101.8078 -294.014 Z"/>
</clipPath>
<clipPath clipPathUnits="userSpaceOnUse" id="clipPath24">
<path d="M-532.0646 -160.5436 L428.1046 -9.3516 L298.3781 814.4973 L-661.7911 663.3053 L-532.0646 -160.5436 Z"/>
</clipPath>
<clipPath clipPathUnits="userSpaceOnUse" id="clipPath25">
<path d="M429.1889 773.2964 L-493.2727 466.9492 L-230.4192 -324.5456 L692.0424 -18.1983 L429.1889 773.2964 Z"/>
</clipPath>
<clipPath clipPathUnits="userSpaceOnUse" id="clipPath26">
<path d="M640.2302 -624.2672 L637.2537 347.7282 L-196.7424 345.1743 L-193.7659 -626.8211 L640.2302 -624.2672 Z"/>
</clipPath>
<clipPath clipPathUnits="userSpaceOnUse" id="clipPath27">
<path d="M910.296 116.2215 L207.2975 787.4719 L-368.6519 184.2819 L334.3466 -486.9685 L910.296 116.2215 Z"/>
</clipPath>
<clipPath clipPathUnits="userSpaceOnUse" id="clipPath28">
<path d="M876.0381 239.616 L28.8552 716.1296 L-380.0052 -10.7742 L467.1776 -487.2878 L876.0381 239.616 Z"/>
</clipPath>
<clipPath clipPathUnits="userSpaceOnUse" id="clipPath29">
<path d="M871.5869 77.1366 L11.4676 529.8823 L-376.9995 -208.1213 L483.1199 -660.8671 L871.5869 77.1366 Z"/>
</clipPath>
<clipPath clipPathUnits="userSpaceOnUse" id="clipPath30">
<path d="M-391.4627 -752.1644 L462.7522 -288.3748 L64.8093 444.5628 L-789.4056 -19.2268 L-391.4627 -752.1644 Z"/>
</clipPath>
<clipPath clipPathUnits="userSpaceOnUse" id="clipPath31">
<path d="M182.2414 965.7385 L-665.1767 489.6434 L-256.6754 -237.4622 L590.7427 238.6329 L182.2414 965.7385 Z"/>
</clipPath>
<clipPath clipPathUnits="userSpaceOnUse" id="clipPath32">
<path d="M594.7593 259.5863 L-352.7891 476.2339 L-538.678 -336.786 L408.8703 -553.4335 L594.7593 259.5863 Z"/>
</clipPath>
<clipPath clipPathUnits="userSpaceOnUse" id="clipPath33">
<path d="M-778.6887 852.3206 L-749.4477 -119.2395 L84.1748 -94.15 L54.9338 877.41 L-778.6887 852.3206 Z"/>
</clipPath>
<clipPath clipPathUnits="userSpaceOnUse" id="clipPath34">
<path d="M602.0658 -25.2637 L-356.2316 137.3712 L-495.7763 -684.8717 L462.5211 -847.5065 L602.0658 -25.2637 Z"/>
</clipPath>
<clipPath clipPathUnits="userSpaceOnUse" id="clipPath35">
<path d="M-59.0071 -309.7479 L642.3438 363.2239 L64.9174 965.0002 L-636.4335 292.0285 L-59.0071 -309.7479 Z"/>
</clipPath>
<clipPath clipPathUnits="userSpaceOnUse" id="clipPath36">
<path d="M-538.2454 -153.3127 L424.0288 -16.155 L306.3441 809.5001 L-655.9301 672.3424 L-538.2454 -153.3127 Z"/>
</clipPath>
<clipPath clipPathUnits="userSpaceOnUse" id="clipPath37">
<path d="M-368.8721 -372.7556 L582.6015 -174.0548 L412.1113 642.3331 L-539.3623 443.6322 L-368.8721 -372.7556 Z"/>
</clipPath>
<clipPath clipPathUnits="userSpaceOnUse" id="clipPath38">
<path d="M209.3786 -523.6142 L773.0679 268.2433 L93.6345 751.9027 L-470.0548 -39.9548 L209.3786 -523.6142 Z"/>
</clipPath>
<clipPath clipPathUnits="userSpaceOnUse" id="clipPath39">
<path d="M-335.0838 -514.8966 L589.0046 -213.4922 L330.3922 579.3985 L-593.6962 277.9941 L-335.0838 -514.8966 Z"/>
</clipPath>
<clipPath clipPathUnits="userSpaceOnUse" id="clipPath40">
<path d="M-290.7608 -582.6356 L640.0696 -302.745 L399.9166 495.9305 L-530.9138 216.0399 L-290.7608 -582.6356 Z"/>
</clipPath>
<clipPath clipPathUnits="userSpaceOnUse" id="clipPath41">
<path d="M636.6901 202.2824 L-224.7067 652.5929 L-611.0842 -86.5068 L250.3126 -536.8173 L636.6901 202.2824 Z"/>
</clipPath>
<clipPath clipPathUnits="userSpaceOnUse" id="clipPath42">
<path d="M-461.8933 -784.654 L500.638 -649.3114 L384.5107 176.5642 L-578.0206 41.2216 L-461.8933 -784.654 Z"/>
</clipPath>
<clipPath clipPathUnits="userSpaceOnUse" id="clipPath43">
<path d="M385.9517 -502.9208 L385.2941 469.0789 L-448.7057 468.5147 L-448.0481 -503.485 L385.9517 -502.9208 Z"/>
</clipPath>
<clipPath clipPathUnits="userSpaceOnUse" id="clipPath44">
<path d="M-295.1319 -544.3365 L599.4923 -164.2951 L273.4074 603.3146 L-621.2168 223.2732 L-295.1319 -544.3365 Z"/>
</clipPath>
<clipPath clipPathUnits="userSpaceOnUse" id="clipPath45">
<path d="M639.4387 -75.6134 L-65.2374 593.8757 L-639.6755 -10.7538 L65.0005 -680.2429 L639.4387 -75.6134 Z"/>
</clipPath>
<clipPath clipPathUnits="userSpaceOnUse" id="clipPath46">
<path d="M424.136 -477.8215 L348.3916 491.2227 L-483.0723 426.2322 L-407.3279 -542.8121 L424.136 -477.8215 Z"/>
</clipPath>
<clipPath clipPathUnits="userSpaceOnUse" id="clipPath47">
<path d="M-377.5381 -766.7575 L463.5331 -279.5378 L45.4866 442.1222 L-795.5847 -45.0976 L-377.5381 -766.7575 Z"/>
</clipPath>
<clipPath clipPathUnits="userSpaceOnUse" id="clipPath48">
<path d="M196.3774 -597.5796 L522.7911 317.9738 L-262.7764 598.0448 L-589.1901 -317.5086 L196.3774 -597.5796 Z"/>
</clipPath>
<clipPath clipPathUnits="userSpaceOnUse" id="clipPath49">
<path d="M-168.0791 611.7931 L-605.8572 -256.04 L138.765 -631.6645 L576.5432 236.1686 L-168.0791 611.7931 Z"/>
</clipPath>
<clipPath clipPathUnits="userSpaceOnUse" id="clipPath50">
<path d="M75.8597 -578.1101 L75.8597 393.8899 L-758.1403 393.8899 L-758.1403 -578.1101 L75.8597 -578.1101 Z"/>
</clipPath>
<clipPath clipPathUnits="userSpaceOnUse" id="clipPath51">
<path d="M-170.2953 -245.5162 L756.348 47.9394 L504.5559 843.0222 L-422.0874 549.5667 L-170.2953 -245.5162 Z"/>
</clipPath>
<clipPath clipPathUnits="userSpaceOnUse" id="clipPath52">
<path d="M-618.0891 -570.6431 L343.4842 -428.6547 L221.6546 396.399 L-739.9187 254.4106 L-618.0891 -570.6431 Z"/>
</clipPath>
<clipPath clipPathUnits="userSpaceOnUse" id="clipPath53">
<path d="M-682.4812 -655.8191 L280.7807 -525.7788 L169.2029 300.7237 L-794.059 170.6834 L-682.4812 -655.8191 Z"/>
</clipPath>
<clipPath clipPathUnits="userSpaceOnUse" id="clipPath54">
<path d="M-540.5056 -159.5111 L420.2866 -12.3292 L294.0009 812.0542 L-666.7913 664.8723 L-540.5056 -159.5111 Z"/>
</clipPath>
<clipPath clipPathUnits="userSpaceOnUse" id="clipPath55">
<path d="M522.2448 217.3044 L-439.8446 355.7527 L-558.6367 -469.7438 L403.4527 -608.1921 L522.2448 217.3044 Z"/>
</clipPath>
<clipPath clipPathUnits="userSpaceOnUse" id="clipPath56">
<path d="M593.4182 -79.3098 L-345.946 170.448 L-560.2444 -635.5496 L379.1198 -885.3074 L593.4182 -79.3098 Z"/>
</clipPath>
<clipPath clipPathUnits="userSpaceOnUse" id="clipPath57">
<path d="M-435.8051 702.7789 L-421.7692 -269.1198 L412.1439 -257.0767 L398.108 714.822 L-435.8051 702.7789 Z"/>
</clipPath>
<clipPath clipPathUnits="userSpaceOnUse" id="clipPath58">
<path d="M-228.9847 481.3725 L-678.412 -380.4854 L61.0833 -766.1052 L510.5107 95.7527 L-228.9847 481.3725 Z"/>
</clipPath>
<clipPath clipPathUnits="userSpaceOnUse" id="clipPath59">
<path d="M183.4598 -261.6045 L180.439 710.3908 L-653.557 707.7988 L-650.5362 -264.1964 L183.4598 -261.6045 Z"/>
</clipPath>
<clipPath clipPathUnits="userSpaceOnUse" id="clipPath60">
<path d="M-143.3927 -643.7702 L685.6507 -136.3542 L250.2753 574.9855 L-578.7682 67.5696 L-143.3927 -643.7702 Z"/>
</clipPath>
<clipPath clipPathUnits="userSpaceOnUse" id="clipPath61">
<path d="M182.0091 -508.1404 L396.2158 439.9627 L-417.2801 623.7574 L-631.4868 -324.3458 L182.0091 -508.1404 Z"/>
</clipPath>
<clipPath clipPathUnits="userSpaceOnUse" id="clipPath62">
<path d="M-423.5175 460.3078 L-427.9482 -511.6821 L406.0431 -515.4837 L410.4738 456.5062 L-423.5175 460.3078 Z"/>
</clipPath>
<clipPath clipPathUnits="userSpaceOnUse" id="clipPath63">
<path d="M-547.0682 -150.6817 L416.1222 -20.1121 L304.0902 806.329 L-659.1001 675.7594 L-547.0682 -150.6817 Z"/>
</clipPath>
<clipPath clipPathUnits="userSpaceOnUse" id="clipPath64">
<path d="M-293.2704 -446.9776 L595.0764 -52.4856 L256.5925 709.7379 L-631.7543 315.2459 L-293.2704 -446.9776 Z"/>
</clipPath>
<clipPath clipPathUnits="userSpaceOnUse" id="clipPath65">
<path d="M183.5399 -266.7204 L180.3904 705.2745 L-653.6053 702.5721 L-650.4557 -269.4228 L183.5399 -266.7204 Z"/>
</clipPath>
<clipPath clipPathUnits="userSpaceOnUse" id="clipPath66">
<path d="M-546.5409 -166.4707 L412.6469 -9.1719 L277.6806 813.8348 L-681.5071 656.536 L-546.5409 -166.4707 Z"/>
</clipPath>
<clipPath clipPathUnits="userSpaceOnUse" id="clipPath67">
<path d="M575.8094 -113.9965 L-345.3074 196.3707 L-611.6101 -593.9703 L309.5067 -904.3375 L575.8094 -113.9965 Z"/>
</clipPath>
<clipPath clipPathUnits="userSpaceOnUse" id="clipPath68">
<path d="M-590.0656 732.7421 L-601.4628 -239.191 L232.4799 -248.9701 L243.8771 722.9631 L-590.0656 732.7421 Z"/>
</clipPath>
<clipPath clipPathUnits="userSpaceOnUse" id="clipPath69">
<path d="M524.6362 197.0923 L-431.0591 374.3786 L-583.1752 -445.6316 L372.5202 -622.9179 L524.6362 197.0923 Z"/>
</clipPath>
<clipPath clipPathUnits="userSpaceOnUse" id="clipPath70">
<path d="M474.3966 -719.0196 L474.1743 252.9804 L-359.8256 252.7897 L-359.6034 -719.2103 L474.3966 -719.0196 Z"/>
</clipPath>
<clipPath clipPathUnits="userSpaceOnUse" id="clipPath71">
<path d="M386.7556 428.7876 L-577.4492 551.642 L-682.8613 -275.6695 L281.3434 -398.5239 L386.7556 428.7876 Z"/>
</clipPath>
<clipPath clipPathUnits="userSpaceOnUse" id="clipPath72">
<path d="M571.4048 362.4575 L-378.9792 566.3057 L-553.886 -249.1474 L396.4981 -452.9955 L571.4048 362.4575 Z"/>
</clipPath>
<clipPath clipPathUnits="userSpaceOnUse" id="clipPath73">
<path d="M507.5563 260.6986 L-342.3486 732.3401 L-747.0287 3.1008 L102.8762 -468.5407 L507.5563 260.6986 Z"/>
</clipPath>
<clipPath clipPathUnits="userSpaceOnUse" id="clipPath74">
<path d="M548.2914 -786.183 L561.1162 185.7324 L-272.8112 196.7364 L-285.636 -775.179 L548.2914 -786.183 Z"/>
</clipPath>
<clipPath clipPathUnits="userSpaceOnUse" id="clipPath75">
<path d="M321.7873 82.8913 L-597.8177 397.7098 L-867.9398 -391.334 L51.6652 -706.1525 L321.7873 82.8913 Z"/>
</clipPath>
<clipPath clipPathUnits="userSpaceOnUse" id="clipPath76">
<path d="M-535.4152 -210.317 L408.2412 22.6995 L208.3073 832.3799 L-735.3491 599.3634 L-535.4152 -210.317 Z"/>
</clipPath>
<clipPath clipPathUnits="userSpaceOnUse" id="clipPath77">
<path d="M-556.2457 -766.8075 L395.6263 -570.0241 L226.7813 246.7056 L-725.0906 49.9222 L-556.2457 -766.8075 Z"/>
</clipPath>
<clipPath clipPathUnits="userSpaceOnUse" id="clipPath78">
<path d="M897.0468 355.8411 L-17.6495 684.6491 L-299.7749 -100.1829 L614.9214 -428.9909 L897.0468 355.8411 Z"/>
</clipPath>
<clipPath clipPathUnits="userSpaceOnUse" id="clipPath79">
<path d="M-517.3199 -800.6006 L421.163 -547.5516 L204.0407 257.6899 L-734.4422 4.6409 L-517.3199 -800.6006 Z"/>
</clipPath>
<clipPath clipPathUnits="userSpaceOnUse" id="clipPath80">
<path d="M546.2936 -63.1233 L-215.7618 540.247 L-733.4684 -113.6153 L28.587 -716.9855 L546.2936 -63.1233 Z"/>
</clipPath>
<clipPath clipPathUnits="userSpaceOnUse" id="clipPath81">
<path d="M329.9842 66.3976 L-574.4713 422.4091 L-879.938 -353.6361 L24.5176 -709.6476 L329.9842 66.3976 Z"/>
</clipPath>
<clipPath clipPathUnits="userSpaceOnUse" id="clipPath82">
<path d="M308.0175 146.1385 L-656.7131 264.7925 L-758.5212 -562.9702 L206.2095 -681.6242 L308.0175 146.1385 Z"/>
</clipPath>
<clipPath clipPathUnits="userSpaceOnUse" id="clipPath83">
<path d="M-486.1497 188.9612 L-249.8004 -753.8659 L559.1686 -551.0724 L322.8193 391.7548 L-486.1497 188.9612 Z"/>
</clipPath>
<clipPath clipPathUnits="userSpaceOnUse" id="clipPath84">
<path d="M-416.8832 -762.6203 L555.1168 -762.6203 L555.1168 71.3797 L-416.8832 71.3797 L-416.8832 -762.6203 Z"/>
</clipPath>
<clipPath clipPathUnits="userSpaceOnUse" id="clipPath85">
<path d="M656.038 618.4661 L-315.962 618.4661 L-315.962 -215.5339 L656.038 -215.5339 L656.038 618.4661 Z"/>
</clipPath>
<clipPath clipPathUnits="userSpaceOnUse" id="clipPath86">
<path d="M283.5954 757.658 L-688.4046 757.658 L-688.4046 -76.342 L283.5954 -76.342 L283.5954 757.658 Z"/>
</clipPath>
<clipPath clipPathUnits="userSpaceOnUse" id="clipPath87">
<path d="M-354.5376 -767.5826 L617.4624 -767.5826 L617.4624 66.4174 L-354.5376 66.4174 L-354.5376 -767.5826 Z"/>
</clipPath>
</defs>
<g fill="white" transform="scale(1,1) translate(503,9)" stroke="white">
<rect x="-503" width="972" height="834" y="-9" clip-path="url(#clipPath2)" stroke="none"/>
</g>
<g fill="rgb(96,160,240)" transform="matrix(1,0,0,1,503,9)" stroke="rgb(96,160,240)">
<line y2="33" fill="none" x1="-493" clip-path="url(#clipPath2)" x2="459" y1="33"/>
<text x="-488" xml:space="preserve" y="30" clip-path="url(#clipPath2)" stroke="none">18.824</text>
<line y2="140" fill="none" x1="-493" clip-path="url(#clipPath2)" x2="459" y1="140"/>
<text x="-488" xml:space="preserve" y="137" clip-path="url(#clipPath2)" stroke="none">14.118</text>
<line y2="247" fill="none" x1="-493" clip-path="url(#clipPath2)" x2="459" y1="247"/>
<text x="-488" xml:space="preserve" y="244" clip-path="url(#clipPath2)" stroke="none">10.588</text>
<line y2="348" fill="none" x1="-493" clip-path="url(#clipPath2)" x2="459" y1="348"/>
<text x="-488" xml:space="preserve" y="345" clip-path="url(#clipPath2)" stroke="none">9.412</text>
<line y2="440" fill="none" x1="-493" clip-path="url(#clipPath2)" x2="459" y1="440"/>
<text x="-488" xml:space="preserve" y="437" clip-path="url(#clipPath2)" stroke="none">7.059</text>
<line y2="527" fill="none" x1="-493" clip-path="url(#clipPath2)" x2="459" y1="527"/>
<text x="-488" xml:space="preserve" y="524" clip-path="url(#clipPath2)" stroke="none">5.882</text>
<line y2="609" fill="none" x1="-493" clip-path="url(#clipPath2)" x2="459" y1="609"/>
<text x="-488" xml:space="preserve" y="606" clip-path="url(#clipPath2)" stroke="none">4.706</text>
<line y2="686" fill="none" x1="-493" clip-path="url(#clipPath2)" x2="459" y1="686"/>
<text x="-488" xml:space="preserve" y="683" clip-path="url(#clipPath2)" stroke="none">3.529</text>
<line y2="753" fill="none" x1="-493" clip-path="url(#clipPath2)" x2="459" y1="753"/>
<text x="-488" xml:space="preserve" y="750" clip-path="url(#clipPath2)" stroke="none">1.176</text>
<line y2="804" fill="none" x1="-493" clip-path="url(#clipPath2)" x2="459" y1="804"/>
<text x="-488" xml:space="preserve" y="801" clip-path="url(#clipPath2)" stroke="none">0</text>
<path fill="none" stroke-miterlimit="1.45" d="M-327.6922 803.545 L-304.2557 770.8954" clip-path="url(#clipPath2)" stroke="rgb(180,180,180)"/>
<path fill="rgb(180,180,180)" stroke-miterlimit="1.45" d="M0 0 L-12 -5 L-9 0 L-12 5 Z" clip-path="url(#clipPath3)" transform="matrix(0.5831,-0.8124,0.8124,0.5831,-299.0075,763.584)" stroke="none"/>
</g>
<g fill="rgb(180,180,180)" stroke-miterlimit="1.45" transform="matrix(1,0,0,1,503,9)" stroke="rgb(180,180,180)">
<path fill="none" d="M290.6751 505.2322 L286.6047 476.5505 L281.1956 425.4807 L272.0598 359.4855 L265.3481 323.223 L256.8094 286.0276 L246.1449 248.8322 L233.0564 212.5696 L217.2452 178.1727 L208.2253 161.9655 L198.4129 146.5744 L187.7705 132.1162 L176.2609 118.7074 L163.8468 106.4647 L150.4908 95.5046 L136.1557 85.9438 L120.8042 77.8988 L104.3988 71.4864 L95.6329 69.1499" clip-path="url(#clipPath2)"/>
<path d="M0 0 L-12 -5 L-9 0 L-12 5 Z" clip-path="url(#clipPath4)" transform="matrix(-0.9663,-0.2575,0.2575,-0.9663,86.9365,66.8321)" stroke="none"/>
</g>
<g fill="rgb(180,180,180)" stroke-miterlimit="1.45" transform="matrix(1,0,0,1,503,9)" stroke="rgb(180,180,180)">
<path fill="none" d="M357.7168 803.5104 L357.5714 732.8538 L356.5537 679.2427 L353.7913 639.736 L351.4833 624.3418 L348.4119 611.3578 L344.4683 600.412 L339.5432 591.1325 L333.5277 583.1473 L326.3128 576.0844 L307.8484 563.2377 L291.1491 553.9803" clip-path="url(#clipPath2)"/>
<path d="M0 0 L-12 -5 L-9 0 L-12 5 Z" clip-path="url(#clipPath5)" transform="matrix(-0.8746,-0.4848,0.4848,-0.8746,283.2777,549.6168)" stroke="none"/>
</g>
<g fill="rgb(180,180,180)" stroke-miterlimit="1.45" transform="matrix(1,0,0,1,503,9)" stroke="rgb(180,180,180)">
<path fill="none" d="M358.5521 803.545 L358.0446 573.4941 L356.8392 480.2649 L354.4919 400.1276 L350.6219 332.0029 L344.8487 274.8117 L336.7916 227.4749 L331.7876 207.1646 L326.0699 188.9132 L319.5909 172.5858 L312.3031 158.0475 L304.1588 145.1633 L295.1104 133.7985 L285.1104 123.8181 L274.1111 115.0872 L262.0651 107.4708 L248.9248 100.8342 L219.1706 89.9605 L184.4679 81.3869 L144.4362 74.0341 L107.6295 68.2315" clip-path="url(#clipPath2)"/>
<path d="M0 0 L-12 -5 L-9 0 L-12 5 Z" clip-path="url(#clipPath6)" transform="matrix(-0.9878,-0.1557,0.1557,-0.9878,98.7393,66.83)" stroke="none"/>
</g>
<g fill="rgb(180,180,180)" stroke-miterlimit="1.45" transform="matrix(1,0,0,1,503,9)" stroke="rgb(180,180,180)">
<path fill="none" d="M356.8816 803.545 L355.1183 786.9684 L353.3792 780.0696 L350.5403 773.9022 L346.2059 768.3198 L339.9799 763.1762 L331.4663 758.3251 L320.2692 753.6203 L288.2406 744.0644 L240.7263 733.3384 L95.4082 705.3951" clip-path="url(#clipPath2)"/>
<path d="M0 0 L-12 -5 L-9 0 L-12 5 Z" clip-path="url(#clipPath7)" transform="matrix(-0.982,-0.1888,0.1888,-0.982,86.5701,703.6956)" stroke="none"/>
</g>
<g fill="rgb(180,180,180)" stroke-miterlimit="1.45" transform="matrix(1,0,0,1,503,9)" stroke="rgb(180,180,180)">
<path fill="none" d="M378.9766 743.6459 L378.8044 692.7595 L377.5971 653.9938 L374.3203 625.1243 L371.5824 613.6899 L367.9391 603.8766 L363.261 595.4002 L357.4188 587.9764 L350.2831 581.3208 L341.7245 575.1492 L319.8216 563.1208 L298.8412 553.4003" clip-path="url(#clipPath2)"/>
<path d="M0 0 L-12 -5 L-9 0 L-12 5 Z" clip-path="url(#clipPath8)" transform="matrix(-0.9073,-0.4204,0.4204,-0.9073,290.6751,549.6168)" stroke="none"/>
</g>
<g fill="rgb(180,180,180)" stroke-miterlimit="1.45" transform="matrix(1,0,0,1,503,9)" stroke="rgb(180,180,180)">
<path fill="none" d="M385.5933 743.6956 L385.0406 533.3998 L383.728 448.1631 L381.1719 374.8786 L376.9578 312.5547 L370.6711 260.2001 L361.8975 216.823 L356.4485 198.1912 L350.2223 181.432 L343.1671 166.4215 L335.2311 153.0357 L326.3624 141.1506 L316.5093 130.6424 L305.62 121.3871 L293.6425 113.2607 L280.5252 106.1394 L266.2162 99.8991 L233.8158 89.566 L196.0269 81.27 L152.4349 74.0194 L111.5816 68.1169" clip-path="url(#clipPath2)"/>
<path d="M0 0 L-12 -5 L-9 0 L-12 5 Z" clip-path="url(#clipPath9)" transform="matrix(-0.9897,-0.143,0.143,-0.9897,102.6741,66.83)" stroke="none"/>
</g>
<g fill="rgb(180,180,180)" stroke-miterlimit="1.45" transform="matrix(1,0,0,1,503,9)" stroke="rgb(180,180,180)">
<path fill="none" d="M399.4015 803.545 L399.2036 732.8538 L397.8182 679.2427 L394.058 639.736 L390.9162 624.3418 L386.7354 611.3578 L381.3671 600.412 L374.663 591.1325 L366.4745 583.1473 L356.6534 576.0844 L331.519 563.2377 L306.4079 553.0113" clip-path="url(#clipPath2)"/>
<path d="M0 0 L-12 -5 L-9 0 L-12 5 Z" clip-path="url(#clipPath10)" transform="matrix(-0.9261,-0.3772,0.3772,-0.9261,298.0726,549.6168)" stroke="none"/>
</g>
<g fill="rgb(180,180,180)" stroke-miterlimit="1.45" transform="matrix(1,0,0,1,503,9)" stroke="rgb(180,180,180)">
<path fill="none" d="M401.0721 803.545 L400.4969 573.4941 L399.1307 480.2649 L396.4703 400.1276 L392.0842 332.0029 L385.541 274.8117 L381.3257 249.979 L376.4092 227.4749 L370.7379 207.1646 L364.2576 188.9132 L356.9145 172.5858 L348.6546 158.0475 L339.424 145.1633 L329.1688 133.7985 L317.835 123.8181 L305.3688 115.0872 L291.7162 107.4708 L276.8232 100.8342 L260.636 95.0424 L243.1005 89.9605 L203.7694 81.3869 L158.3985 74.0341 L115.4957 68.0664" clip-path="url(#clipPath2)"/>
<path d="M0 0 L-12 -5 L-9 0 L-12 5 Z" clip-path="url(#clipPath11)" transform="matrix(-0.9905,-0.1378,0.1378,-0.9905,106.5815,66.8265)" stroke="none"/>
</g>
<g fill="rgb(180,180,180)" stroke-miterlimit="1.45" transform="matrix(1,0,0,1,503,9)" stroke="rgb(180,180,180)">
<path fill="none" d="M400.2368 803.5197 L400.0891 699.698 L399.055 608.7541 L396.2482 529.7905 L390.7824 461.8846 L386.7753 431.7899 L381.7711 404.1136 L375.659 378.7404 L368.3282 355.5548 L359.6678 334.4417 L349.5671 315.2856 L337.9153 297.9713 L324.6016 282.3833 L309.5151 268.4063 L292.5452 255.925 L273.581 244.8241 L252.5117 234.9882 L229.2266 226.302 L203.6147 218.6501 L175.5655 211.9173 L144.9679 205.9881 L75.6849 196.0793 L-5.1207 188.0012 L-98.3352 180.8309 L-195.8654 174.2516" clip-path="url(#clipPath2)"/>
<path d="M0 0 L-12 -5 L-9 0 L-12 5 Z" clip-path="url(#clipPath12)" transform="matrix(-0.9977,-0.0673,0.0673,-0.9977,-204.845,173.6459)" stroke="none"/>
</g>
<g fill="rgb(180,180,180)" stroke-miterlimit="1.45" transform="matrix(1,0,0,1,503,9)" stroke="rgb(180,180,180)">
<path fill="none" d="M-396.6715 803.545 L-395.8115 573.4941 L-393.7689 480.2649 L-389.7913 400.1276 L-383.2336 332.0029 L-378.7856 302.1081 L-373.4507 274.8117 L-367.1483 249.979 L-359.7977 227.4749 L-351.3184 207.1646 L-341.6296 188.9132 L-330.6508 172.5858 L-318.3012 158.0475 L-304.5005 145.1633 L-289.1677 133.7985 L-272.2224 123.8181 L-253.584 115.0872 L-233.1717 107.4708 L-210.905 100.8342 L-186.7032 95.0424 L-160.4857 89.9605 L-101.6811 81.3869 L-33.8462 74.0341 L34.6648 67.6602" clip-path="url(#clipPath2)"/>
<path d="M0 0 L-12 -5 L-9 0 L-12 5 Z" clip-path="url(#clipPath13)" transform="matrix(0.9957,-0.0926,0.0926,0.9957,43.6261,66.8265)" stroke="none"/>
</g>
<g fill="rgb(180,180,180)" stroke-miterlimit="1.45" transform="matrix(1,0,0,1,503,9)" stroke="rgb(180,180,180)">
<path fill="none" d="M71.143 66.836 L34.0268 80.2347 L6.1075 91.6171 L-13.8977 102.6906 L-21.3447 108.6492 L-27.3078 115.1758 L-31.9519 122.4855 L-35.4418 130.7934 L-37.9424 140.3145 L-39.6187 151.2639 L-41.1576 178.3078 L-41.3214 204.6461" clip-path="url(#clipPath2)"/>
<path d="M0 0 L-12 -5 L-9 0 L-12 5 Z" clip-path="url(#clipPath14)" transform="matrix(-0.0062,1,-1,-0.0062,-41.3774,213.6459)" stroke="none"/>
</g>
<g fill="rgb(180,180,180)" stroke-miterlimit="1.45" transform="matrix(1,0,0,1,503,9)" stroke="rgb(180,180,180)">
<path fill="none" d="M229.3894 589.6168 L232.4294 577.5932 L234.8447 557.3092 L236.4211 529.9449 L236.9439 496.6802 L236.1987 458.6953 L233.971 417.1703 L230.0463 373.2851 L224.2102 328.2198 L216.2481 283.1546 L205.9457 239.2694 L193.0883 197.7444 L177.4616 159.7595 L168.5428 142.4634 L158.8511 126.4948 L148.3599 112.0014 L137.0422 99.1305 L124.8714 88.0297 L111.8206 78.8465 L97.8629 71.7284 L91.5488 69.6484" clip-path="url(#clipPath2)"/>
<path d="M0 0 L-12 -5 L-9 0 L-12 5 Z" clip-path="url(#clipPath15)" transform="matrix(-0.9498,-0.3129,0.3129,-0.9498,83.0007,66.8325)" stroke="none"/>
</g>
<g fill="rgb(180,180,180)" stroke-miterlimit="1.45" transform="matrix(1,0,0,1,503,9)" stroke="rgb(180,180,180)">
<path fill="none" d="M335.5242 803.545 L335.391 699.698 L334.4587 608.7541 L331.9283 529.7905 L327.0006 461.8846 L323.3881 431.7899 L318.8766 404.1136 L313.3662 378.7404 L306.7571 355.5548 L298.9494 334.4417 L289.8431 315.2856 L279.3385 297.9713 L267.3355 282.3833 L253.7344 268.4063 L238.4352 255.925 L221.3381 244.8241 L202.3432 234.9882 L181.3505 226.302 L158.2603 218.6501 L132.9725 211.9173 L105.3874 205.9881 L42.9255 196.0793 L-29.9245 188.0012 L-113.9617 180.8309 L-201.0103 174.3174" clip-path="url(#clipPath2)"/>
<path d="M0 0 L-12 -5 L-9 0 L-12 5 Z" clip-path="url(#clipPath16)" transform="matrix(-0.9972,-0.0746,0.0746,-0.9972,-209.9852,173.6459)" stroke="none"/>
</g>
<g fill="rgb(180,180,180)" stroke-miterlimit="1.45" transform="matrix(1,0,0,1,503,9)" stroke="rgb(180,180,180)">
<path fill="none" d="M334.8977 803.545 L334.2221 644.014 L332.6176 579.3161 L329.493 523.6416 L324.3417 476.2243 L316.6569 436.298 L311.7061 418.9045 L305.9319 403.0964 L299.271 388.778 L291.6601 375.8534 L283.0358 364.2268 L273.3348 353.8026 L262.4937 344.4849 L250.4492 336.1779 L237.138 328.7859 L222.4968 322.2131 L188.9707 311.1419 L149.3644 302.1981 L103.1711 294.6155 L-2.0437 281.5789" clip-path="url(#clipPath2)"/>
<path d="M0 0 L-12 -5 L-9 0 L-12 5 Z" clip-path="url(#clipPath17)" transform="matrix(-0.9924,-0.123,0.123,-0.9924,-10.9754,280.4723)" stroke="none"/>
</g>
<g fill="rgb(180,180,180)" stroke-miterlimit="1.45" transform="matrix(1,0,0,1,503,9)" stroke="rgb(180,180,180)">
<path fill="none" d="M-373.5391 803.4974 L-373.3201 608.7541 L-371.7868 461.8846 L-370.1165 404.1136 L-367.6249 355.5548 L-364.1476 315.2856 L-359.5202 282.3833 L-353.5786 255.925 L-346.1584 234.9882 L-337.0953 218.6501 L-326.2252 205.9881 L-313.3836 196.0793 L-298.4063 188.0012 L-281.129 180.8309 L-269.8448 176.724" clip-path="url(#clipPath2)"/>
<path d="M0 0 L-12 -5 L-9 0 L-12 5 Z" clip-path="url(#clipPath18)" transform="matrix(0.9397,-0.342,0.342,0.9397,-261.3875,173.6459)" stroke="none"/>
</g>
<g fill="rgb(180,180,180)" stroke-miterlimit="1.45" transform="matrix(1,0,0,1,503,9)" stroke="rgb(180,180,180)">
<path fill="none" d="M-351.0333 803.4974 L-350.8482 608.7541 L-349.5523 461.8846 L-346.0348 355.5548 L-343.0959 315.2856 L-339.185 282.3833 L-334.1634 255.925 L-327.8922 234.9882 L-320.2325 218.6501 L-311.0454 205.9881 L-300.1923 196.0793 L-287.5341 188.0012 L-264.4273 177.3991" clip-path="url(#clipPath2)"/>
<path d="M0 0 L-12 -5 L-9 0 L-12 5 Z" clip-path="url(#clipPath19)" transform="matrix(0.9089,-0.417,0.417,0.9089,-256.2473,173.6459)" stroke="none"/>
</g>
<g fill="rgb(180,180,180)" stroke-miterlimit="1.45" transform="matrix(1,0,0,1,503,9)" stroke="rgb(180,180,180)">
<path fill="none" d="M-298.9807 743.669 L-301.3288 689.2482 L-301.8959 606.9639 L-300.4863 528.4296 L-298.9796 500.4396 L-296.9057 485.2322 L-294.3166 476.4633 L-289.2029 465.4477 L-284.7256 459.2337 L-278.4486 452.6217 L-269.9824 445.6662 L-258.9377 438.4218 L-244.9247 430.943 L-227.5542 423.2844 L-206.4365 415.5005 L-181.1821 407.6459 L-151.4017 399.7751 L-116.7056 391.9427 L-76.7043 384.2033 L-39.8868 378.0864" clip-path="url(#clipPath2)"/>
<path d="M0 0 L-12 -5 L-9 0 L-12 5 Z" clip-path="url(#clipPath20)" transform="matrix(0.9865,-0.1639,0.1639,0.9865,-31.0085,376.6114)" stroke="none"/>
</g>
<g fill="rgb(180,180,180)" stroke-miterlimit="1.45" transform="matrix(1,0,0,1,503,9)" stroke="rgb(180,180,180)">
<path fill="none" d="M-305.5959 743.6956 L-308.1337 732.341 L-309.9828 713.9476 L-310.801 689.5209 L-310.2455 660.0664 L-307.9739 626.5898 L-303.6435 590.0965 L-296.912 551.5922 L-287.4366 512.0822 L-274.8748 472.5723 L-258.8842 434.0679 L-249.496 415.5071 L-239.1222 397.5746 L-227.7198 380.3964 L-215.2462 364.098 L-201.6584 348.8052 L-186.9137 334.6436 L-170.9691 321.7389 L-153.782 310.2169 L-135.3096 300.2032 L-115.5088 291.8234 L-94.3371 285.2034 L-80.6041 282.3246" clip-path="url(#clipPath2)"/>
<path d="M0 0 L-12 -5 L-9 0 L-12 5 Z" clip-path="url(#clipPath21)" transform="matrix(0.9787,-0.2052,0.2052,0.9787,-71.7956,280.4781)" stroke="none"/>
</g>
<g fill="rgb(180,180,180)" stroke-miterlimit="1.45" transform="matrix(1,0,0,1,503,9)" stroke="rgb(180,180,180)">
<path fill="none" d="M-292.363 743.6956 L-292.2022 664.9059 L-291.0762 605.2089 L-288.0201 561.3414 L-285.4666 544.3239 L-282.0686 530.0401 L-277.7056 518.082 L-272.2567 508.0418 L-265.6016 499.5114 L-257.6194 492.0832 L-248.1895 485.349 L-237.1914 478.9011 L-218.0484 469.2753" clip-path="url(#clipPath2)"/>
<path d="M0 0 L-12 -5 L-9 0 L-12 5 Z" clip-path="url(#clipPath22)" transform="matrix(0.8934,-0.4492,0.4492,0.8934,-210.0077,465.2322)" stroke="none"/>
</g>
<g fill="rgb(180,180,180)" stroke-miterlimit="1.45" transform="matrix(1,0,0,1,503,9)" stroke="rgb(180,180,180)">
<path fill="none" d="M-328.5287 803.5062 L-329.7656 763.7858 L-329.6995 689.6863 L-327.4219 592.8483 L-322.0255 484.8737 L-317.8743 430.3357 L-312.6031 377.3643 L-306.0987 327.4096 L-298.2474 281.922 L-288.9361 242.3515 L-278.0512 210.1485 L-271.9832 197.263 L-265.4793 186.7633 L-258.5253 178.8304 L-258.484 178.8016" clip-path="url(#clipPath2)"/>
<path d="M0 0 L-12 -5 L-9 0 L-12 5 Z" clip-path="url(#clipPath23)" transform="matrix(0.8196,-0.5729,0.5729,0.8196,-251.1076,173.6452)" stroke="none"/>
</g>
<g fill="rgb(180,180,180)" stroke-miterlimit="1.45" transform="matrix(1,0,0,1,503,9)" stroke="rgb(180,180,180)">
<path fill="none" d="M-329.3627 803.545 L-330.4795 787.4834 L-330.8829 759.1957 L-330.0208 720.4453 L-327.341 672.9952 L-322.2912 618.6086 L-314.3194 559.0488 L-302.8733 496.079 L-287.4007 431.4622 L-277.9819 399.0872 L-267.3494 366.9618 L-255.4343 335.3061 L-242.1674 304.3408 L-227.4797 274.2861 L-211.3023 245.3625 L-193.5661 217.7904 L-174.202 191.7901 L-153.1411 167.5821 L-130.3143 145.3867 L-105.6527 125.4245 L-79.0871 107.9156 L-50.5486 93.0807 L-19.9682 81.14 L12.7233 72.3139 L38.6702 68.2282" clip-path="url(#clipPath2)"/>
<path d="M0 0 L-12 -5 L-9 0 L-12 5 Z" clip-path="url(#clipPath24)" transform="matrix(0.9878,-0.1555,0.1555,0.9878,47.5607,66.8283)" stroke="none"/>
</g>
<g fill="rgb(180,180,180)" stroke-miterlimit="1.45" transform="matrix(1,0,0,1,503,9)" stroke="rgb(180,180,180)">
<path fill="none" d="M268.4829 549.6168 L156.5779 586.7802" clip-path="url(#clipPath2)"/>
<path d="M0 0 L-12 -5 L-9 0 L-12 5 Z" clip-path="url(#clipPath25)" transform="matrix(-0.949,0.3152,-0.3152,-0.949,148.0365,589.6167)" stroke="none"/>
</g>
<g fill="rgb(180,180,180)" stroke-miterlimit="1.45" transform="matrix(1,0,0,1,503,9)" stroke="rgb(180,180,180)">
<path fill="none" d="M124.9403 743.6523 L123.4394 699.3981 L123.2524 638.3154" clip-path="url(#clipPath2)"/>
<path d="M0 0 L-12 -5 L-9 0 L-12 5 Z" clip-path="url(#clipPath26)" transform="matrix(-0.0031,-1,1,-0.0031,123.2248,629.3155)" stroke="none"/>
</g>
<g fill="rgb(180,180,180)" stroke-miterlimit="1.45" transform="matrix(1,0,0,1,503,9)" stroke="rgb(180,180,180)">
<path fill="none" d="M117.002 743.6956 L81.6193 709.9109" clip-path="url(#clipPath2)"/>
<path d="M0 0 L-12 -5 L-9 0 L-12 5 Z" clip-path="url(#clipPath27)" transform="matrix(-0.7232,-0.6906,0.6906,-0.7232,75.1101,703.6956)" stroke="none"/>
</g>
<g fill="rgb(180,180,180)" stroke-miterlimit="1.45" transform="matrix(1,0,0,1,503,9)" stroke="rgb(180,180,180)">
<path fill="none" d="M264.1846 803.545 L250.7034 783.3654 L239.5871 760.8846 L218.7722 712.7085 L206.2352 688.8572 L198.8133 677.3942 L190.386 666.3932 L180.7758 655.9696 L169.8054 646.2386 L157.2973 637.3155 L150.9185 633.7276" clip-path="url(#clipPath2)"/>
<path d="M0 0 L-12 -5 L-9 0 L-12 5 Z" clip-path="url(#clipPath28)" transform="matrix(-0.8716,-0.4902,0.4902,-0.8716,143.0742,629.3154)" stroke="none"/>
</g>
<g fill="rgb(180,180,180)" stroke-miterlimit="1.45" transform="matrix(1,0,0,1,503,9)" stroke="rgb(180,180,180)">
<path fill="none" d="M265.4376 803.545 L275.5956 791.9577 L284.3496 776.3149 L291.6512 757.2125 L297.4518 735.2466 L301.703 711.0131 L304.3562 685.108 L305.3631 658.1273 L304.675 630.6668 L302.2436 603.3227 L298.0202 576.6909 L291.9565 551.3672 L284.0039 527.9479 L274.1139 507.0287 L262.2381 489.2057 L248.328 475.0749 L240.5949 469.5803 L240.299 469.4245" clip-path="url(#clipPath2)"/>
<path d="M0 0 L-12 -5 L-9 0 L-12 5 Z" clip-path="url(#clipPath29)" transform="matrix(-0.8849,-0.4658,0.4658,-0.8849,232.3349,465.2324)" stroke="none"/>
</g>
<g fill="rgb(180,180,180)" stroke-miterlimit="1.45" transform="matrix(1,0,0,1,503,9)" stroke="rgb(180,180,180)">
<path fill="none" d="M120.9718 743.6956 L117.7969 734.416 L115.1635 721.8867 L111.9838 688.9357 L112.3582 648.5568 L114.1672 626.7425 L117.2117 604.4639 L121.6073 582.1853 L127.4696 560.371 L134.9143 539.4852 L144.057 519.9921 L155.0134 502.356 L167.8991 487.0412 L182.8298 474.5118 L192.0117 469.5266" clip-path="url(#clipPath2)"/>
<path d="M0 0 L-12 -5 L-9 0 L-12 5 Z" clip-path="url(#clipPath30)" transform="matrix(0.8788,-0.4771,0.4771,0.8788,199.9211,465.2322)" stroke="none"/>
</g>
<g fill="rgb(180,180,180)" stroke-miterlimit="1.45" transform="matrix(1,0,0,1,503,9)" stroke="rgb(180,180,180)">
<path fill="none" d="M212.8483 629.3155 L209.0742 658.4374 L205.3437 672.5374 L199.0728 686.5056 L189.2777 700.4738 L174.9749 714.5737 L155.1808 728.9371 L136.758 739.2873" clip-path="url(#clipPath2)"/>
<path d="M0 0 L-12 -5 L-9 0 L-12 5 Z" clip-path="url(#clipPath31)" transform="matrix(-0.8718,0.4898,-0.4898,-0.8718,128.9116,743.6956)" stroke="none"/>
</g>
<g fill="rgb(180,180,180)" stroke-miterlimit="1.45" transform="matrix(1,0,0,1,503,9)" stroke="rgb(180,180,180)">
<path fill="none" d="M193.8435 416.6114 L27.7123 378.6271" clip-path="url(#clipPath2)"/>
<path d="M0 0 L-12 -5 L-9 0 L-12 5 Z" clip-path="url(#clipPath32)" transform="matrix(-0.9748,-0.2229,0.2229,-0.9748,18.9387,376.6211)" stroke="none"/>
</g>
<g fill="rgb(180,180,180)" stroke-miterlimit="1.45" transform="matrix(1,0,0,1,503,9)" stroke="rgb(180,180,180)">
<path fill="none" d="M228.7278 629.3155 L275.677 642.6639 L310.9755 653.6027 L336.3065 663.4722 L345.7602 668.425 L353.3532 673.613 L359.2959 679.2039 L363.7987 685.3654 L367.0721 692.2647 L369.3263 700.0696 L371.6191 719.0662 L372.0896 734.6997" clip-path="url(#clipPath2)"/>
<path d="M0 0 L-12 -5 L-9 0 L-12 5 Z" clip-path="url(#clipPath33)" transform="matrix(0.0301,0.9995,-0.9995,0.0301,372.3604,743.6956)" stroke="none"/>
</g>
<g fill="rgb(180,180,180)" stroke-miterlimit="1.45" transform="matrix(1,0,0,1,503,9)" stroke="rgb(180,180,180)">
<path fill="none" d="M336.1507 803.545 L335.6792 573.4941 L334.5595 480.2649 L332.379 400.1276 L328.7841 332.0029 L323.4213 274.8117 L315.9369 227.4749 L311.2886 207.1646 L305.9773 188.9132 L299.9589 172.5858 L293.189 158.0475 L285.6236 145.1633 L277.2184 133.7985 L267.9291 123.8181 L257.7118 115.0872 L246.522 107.4708 L234.3156 100.8342 L206.6764 89.9605 L174.4404 81.3869 L137.2541 74.0341 L103.6785 68.3359" clip-path="url(#clipPath2)"/>
<path d="M0 0 L-12 -5 L-9 0 L-12 5 Z" clip-path="url(#clipPath34)" transform="matrix(-0.9859,-0.1673,0.1673,-0.9859,94.8054,66.83)" stroke="none"/>
</g>
<g fill="rgb(180,180,180)" stroke-miterlimit="1.45" transform="matrix(1,0,0,1,503,9)" stroke="rgb(180,180,180)">
<path fill="none" d="M-235.0005 743.6956 L-241.4583 734.4209 L-247.1345 721.9257 L-252.1067 706.7036 L-256.4528 689.2482 L-263.5773 649.6115 L-269.1295 606.9639 L-278.0037 528.4296 L-282.5691 500.4396 L-285.1559 490.9913 L-288.0489 485.2322 L-290.9187 478.8765 L-293.3429 467.7422 L-296.6077 433.7343 L-297.3501 388.4021 L-295.0771 336.939 L-289.2953 284.5384 L-284.9346 259.6095 L-279.5118 236.3938 L-272.9653 215.5403 L-265.2334 197.6984 L-256.2544 183.5172 L-252.4608 179.8771" clip-path="url(#clipPath2)"/>
<path d="M0 0 L-12 -5 L-9 0 L-12 5 Z" clip-path="url(#clipPath35)" transform="matrix(0.7216,-0.6924,0.6924,0.7216,-245.9668,173.6459)" stroke="none"/>
</g>
<g fill="rgb(180,180,180)" stroke-miterlimit="1.45" transform="matrix(1,0,0,1,503,9)" stroke="rgb(180,180,180)">
<path fill="none" d="M-237.8362 743.6956 L-244.2941 734.4209 L-249.9713 721.9257 L-254.9466 706.7036 L-259.2985 689.2482 L-266.4469 649.6115 L-272.0456 606.9639 L-281.1111 528.4296 L-285.8364 500.4396 L-288.5224 490.9913 L-291.5288 485.2322 L-294.4384 477.6768 L-296.4464 463.1521 L-297.0502 442.6202 L-295.7473 417.0432 L-292.0352 387.3834 L-285.4114 354.6027 L-275.3734 319.6634 L-261.4186 283.5276 L-243.0446 247.1574 L-232.0433 229.185 L-219.7487 211.5149 L-206.0981 194.2673 L-191.0285 177.5624 L-174.4772 161.5205 L-156.3815 146.2619 L-136.6784 131.9068 L-115.3051 118.5756 L-92.1988 106.3884 L-67.2968 95.4655 L-40.5362 85.9273 L-11.8541 77.8939 L18.8122 71.4857 L42.5836 68.0975" clip-path="url(#clipPath2)"/>
<path d="M0 0 L-12 -5 L-9 0 L-12 5 Z" clip-path="url(#clipPath36)" transform="matrix(0.99,-0.1411,0.1411,0.99,51.4936,66.8275)" stroke="none"/>
</g>
<g fill="rgb(180,180,180)" stroke-miterlimit="1.45" transform="matrix(1,0,0,1,503,9)" stroke="rgb(180,180,180)">
<path fill="none" d="M-232.1649 743.6956 L-238.6227 734.4209 L-244.2988 721.9257 L-249.2711 706.7036 L-253.6172 689.2482 L-260.7417 649.6115 L-266.2939 606.9639 L-275.1681 528.4296 L-279.7335 500.4396 L-282.3203 490.9913 L-285.2133 485.2322 L-288.0398 480.0761 L-290.1607 472.3322 L-291.2544 462.3365 L-290.9993 450.4254 L-289.0739 436.935 L-285.1566 422.2016 L-278.9257 406.5613 L-270.0596 390.3505 L-258.2369 373.9053 L-243.1359 357.5619 L-224.435 341.6566 L-201.8126 326.5256 L-174.9471 312.5051 L-143.5171 299.9313 L-107.2008 289.1405 L-74.5271 282.3171" clip-path="url(#clipPath2)"/>
<path d="M0 0 L-12 -5 L-9 0 L-12 5 Z" clip-path="url(#clipPath37)" transform="matrix(0.9789,-0.2044,0.2044,0.9789,-65.7172,280.4773)" stroke="none"/>
</g>
<g fill="rgb(180,180,180)" stroke-miterlimit="1.45" transform="matrix(1,0,0,1,503,9)" stroke="rgb(180,180,180)">
<path fill="none" d="M-229.3331 743.653 L-231.2559 721.8867 L-232.2456 688.9357 L-231.9295 648.5568 L-229.9388 604.4639 L-225.9046 560.371 L-219.4581 519.9921 L-215.215 502.356 L-210.2304 487.0412 L-204.4582 474.5118 L-203.0718 472.5642" clip-path="url(#clipPath2)"/>
<path d="M0 0 L-12 -5 L-9 0 L-12 5 Z" clip-path="url(#clipPath38)" transform="matrix(0.5799,-0.8147,0.8147,0.5799,-197.8525,465.2322)" stroke="none"/>
</g>
<g fill="rgb(180,180,180)" stroke-miterlimit="1.45" transform="matrix(1,0,0,1,503,9)" stroke="rgb(180,180,180)">
<path fill="none" d="M-226.4937 743.6956 L-222.1582 721.9257 L-218.555 689.2482 L-211.6121 606.9639 L-207.3056 565.2538 L-201.7979 528.4296 L-198.4426 513.0836 L-194.6056 500.4396 L-190.2267 490.9913 L-185.2454 485.2322 L-175.6523 476.4633 L-166.8299 465.4477 L-156.8978 452.6217 L-143.9753 438.4218 L-126.1819 423.2844 L-101.637 407.6459 L-68.46 391.9427 L-48.0468 384.2033 L-33.3268 379.4021" clip-path="url(#clipPath2)"/>
<path d="M0 0 L-12 -5 L-9 0 L-12 5 Z" clip-path="url(#clipPath39)" transform="matrix(0.9507,-0.3101,0.3101,0.9507,-24.7704,376.6114)" stroke="none"/>
</g>
<g fill="rgb(180,180,180)" stroke-miterlimit="1.45" transform="matrix(1,0,0,1,503,9)" stroke="rgb(180,180,180)">
<path fill="none" d="M-223.658 743.6956 L-219.0772 721.8867 L-213.7565 688.9357 L-205.7403 648.5568 L-200.1103 626.7425 L-193.0731 604.4639 L-184.3843 582.1853 L-173.7993 560.371 L-161.0738 539.4852 L-145.9634 519.9921 L-128.2235 502.356 L-107.6097 487.0412 L-83.8776 474.5118 L-70.7658 469.4368 L-65.4015 467.8238" clip-path="url(#clipPath2)"/>
<path d="M0 0 L-12 -5 L-9 0 L-12 5 Z" clip-path="url(#clipPath40)" transform="matrix(0.9576,-0.288,0.288,0.9576,-56.7827,465.2322)" stroke="none"/>
</g>
<g fill="rgb(180,180,180)" stroke-miterlimit="1.45" transform="matrix(1,0,0,1,503,9)" stroke="rgb(180,180,180)">
<path fill="none" d="M47.4199 803.4969 L47.264 705.0003 L46.1717 630.4579 L43.2069 575.9531 L40.7298 554.9758 L37.4335 537.5213 L33.2009 523.0938 L27.9151 511.1979 L21.4589 501.3379 L13.7155 493.0183 L4.5676 485.7435 L-6.1016 479.0179 L-24.4964 469.4017" clip-path="url(#clipPath2)"/>
<path d="M0 0 L-12 -5 L-9 0 L-12 5 Z" clip-path="url(#clipPath41)" transform="matrix(-0.8862,-0.4633,0.4633,-0.8862,-32.4723,465.2322)" stroke="none"/>
</g>
<g fill="rgb(180,180,180)" stroke-miterlimit="1.45" transform="matrix(1,0,0,1,503,9)" stroke="rgb(180,180,180)">
<path fill="none" d="M-220.8224 743.6956 L54.7377 704.9488" clip-path="url(#clipPath2)"/>
<path d="M0 0 L-12 -5 L-9 0 L-12 5 Z" clip-path="url(#clipPath42)" transform="matrix(0.9903,-0.1392,0.1392,0.9903,63.65,703.6956)" stroke="none"/>
</g>
<g fill="rgb(180,180,180)" stroke-miterlimit="1.45" transform="matrix(1,0,0,1,503,9)" stroke="rgb(180,180,180)">
<path fill="none" d="M9.6528 803.545 L4.1774 768.7915 L1.3657 712.7347 L0.3298 595.3497 L0.1879 385.6114" clip-path="url(#clipPath2)"/>
<path d="M0 0 L-12 -5 L-9 0 L-12 5 Z" clip-path="url(#clipPath43)" transform="matrix(-0.0007,-1,1,-0.0007,0.1818,376.6114)" stroke="none"/>
</g>
<g fill="rgb(180,180,180)" stroke-miterlimit="1.45" transform="matrix(1,0,0,1,503,9)" stroke="rgb(180,180,180)">
<path fill="none" d="M-140.1918 743.6956 L-137.9422 718.0787 L-134.8417 675.0887 L-129.4647 620.5166 L-120.3855 560.1535 L-114.012 529.61 L-106.1783 499.7904 L-96.7063 471.4185 L-85.4176 445.2183 L-72.134 421.9136 L-56.6775 402.2283 L-48.0786 393.9691 L-38.8696 386.8862 L-29.0283 381.0702 L-26.8159 380.1303" clip-path="url(#clipPath2)"/>
<path d="M0 0 L-12 -5 L-9 0 L-12 5 Z" clip-path="url(#clipPath44)" transform="matrix(0.9204,-0.391,0.391,0.9204,-18.5323,376.6114)" stroke="none"/>
</g>
<g fill="rgb(180,180,180)" stroke-miterlimit="1.45" transform="matrix(1,0,0,1,503,9)" stroke="rgb(180,180,180)">
<path fill="none" d="M209.54 589.6168 L207.8049 574.3078 L202.9109 559.997 L195.3094 546.6425 L185.4518 534.2021 L173.7892 522.6338 L160.7731 511.8956 L132.4853 492.7415 L79.5241 462.5447 L62.0716 450.8297 L57.182 445.6708 L55.4518 440.9218 L54.7832 426.2423 L53.1951 420.4371 L50.1026 414.6501 L37.3981 400.1162 L19.1827 382.8103" clip-path="url(#clipPath2)"/>
<path d="M0 0 L-12 -5 L-9 0 L-12 5 Z" clip-path="url(#clipPath45)" transform="matrix(-0.725,-0.6888,0.6888,-0.725,12.6579,376.6114)" stroke="none"/>
</g>
<g fill="rgb(180,180,180)" stroke-miterlimit="1.45" transform="matrix(1,0,0,1,503,9)" stroke="rgb(180,180,180)">
<path fill="none" d="M118.2625 589.6168 L117.0064 574.2921 L113.4567 559.8714 L107.9411 546.2186 L100.7871 533.1972 L82.8748 508.5043 L62.3412 484.7026 L41.8076 460.7025 L32.3599 448.2873 L23.8953 435.4138 L16.7413 421.9457 L11.2256 407.7467 L7.6759 392.6807 L7.1212 385.584" clip-path="url(#clipPath2)"/>
<path d="M0 0 L-12 -5 L-9 0 L-12 5 Z" clip-path="url(#clipPath46)" transform="matrix(-0.0779,-0.997,0.997,-0.0779,6.4199,376.6114)" stroke="none"/>
</g>
<g fill="rgb(180,180,180)" stroke-miterlimit="1.45" transform="matrix(1,0,0,1,503,9)" stroke="rgb(180,180,180)">
<path fill="none" d="M138.1119 589.6168 L138.2484 561.6851 L139.2043 540.2069 L141.7987 523.7245 L146.851 510.7802 L155.1804 499.9165 L167.6063 489.6757 L184.9479 478.6001 L200.2369 469.7435" clip-path="url(#clipPath2)"/>
<path d="M0 0 L-12 -5 L-9 0 L-12 5 Z" clip-path="url(#clipPath47)" transform="matrix(0.8653,-0.5013,0.5013,0.8653,208.0246,465.2322)" stroke="none"/>
</g>
<g fill="rgb(180,180,180)" stroke-miterlimit="1.45" transform="matrix(1,0,0,1,503,9)" stroke="rgb(180,180,180)">
<path fill="none" d="M-20.3171 416.6114 L-9.0925 385.1277" clip-path="url(#clipPath2)"/>
<path d="M0 0 L-12 -5 L-9 0 L-12 5 Z" clip-path="url(#clipPath48)" transform="matrix(0.3358,-0.9419,0.9419,0.3358,-6.0702,376.6504)" stroke="none"/>
</g>
<g fill="rgb(180,180,180)" stroke-miterlimit="1.45" transform="matrix(1,0,0,1,503,9)" stroke="rgb(180,180,180)">
<path fill="none" d="M-12.314 376.6504 L-28.4188 408.5759" clip-path="url(#clipPath2)"/>
<path d="M0 0 L-12 -5 L-9 0 L-12 5 Z" clip-path="url(#clipPath49)" transform="matrix(-0.4504,0.8928,-0.8928,-0.4504,-32.4723,416.6114)" stroke="none"/>
</g>
<g fill="rgb(180,180,180)" stroke-miterlimit="1.45" transform="matrix(1,0,0,1,503,9)" stroke="rgb(180,180,180)">
<path fill="none" d="M75.1101 669.3155 L75.1101 75.8597" clip-path="url(#clipPath2)"/>
<path d="M0 0 L-12 -5 L-9 0 L-12 5 Z" clip-path="url(#clipPath50)" transform="matrix(0,-1,1,0,75.1101,66.8597)" stroke="none"/>
</g>
<g fill="rgb(180,180,180)" stroke-miterlimit="1.45" transform="matrix(1,0,0,1,503,9)" stroke="rgb(180,180,180)">
<path fill="none" d="M-395.4186 803.545 L-395.1668 608.7541 L-393.4047 461.8846 L-391.4851 404.1136 L-388.6216 355.5548 L-384.6252 315.2856 L-379.3072 282.3833 L-372.4788 255.925 L-363.9511 234.9882 L-353.5353 218.6501 L-341.0428 205.9881 L-326.2845 196.0793 L-309.0718 188.0012 L-289.2158 180.8309 L-275.1077 176.3631" clip-path="url(#clipPath2)"/>
<path d="M0 0 L-12 -5 L-9 0 L-12 5 Z" clip-path="url(#clipPath51)" transform="matrix(0.9533,-0.3019,0.3019,0.9533,-266.5277,173.6459)" stroke="none"/>
</g>
<g fill="rgb(180,180,180)" stroke-miterlimit="1.45" transform="matrix(1,0,0,1,503,9)" stroke="rgb(180,180,180)">
<path fill="none" d="M-133.5754 743.6956 L-129.0088 721.8867 L-121.7522 688.9357 L-115.9235 669.4426 L-107.9923 648.5568 L-97.4821 626.7425 L-83.916 604.4639 L-66.8176 582.1853 L-45.7101 560.371 L-20.1169 539.4852 L10.4387 519.9921 L46.4333 502.356 L66.6192 494.3794 L88.3436 487.0412 L111.666 480.3993 L136.6461 474.5118 L163.3435 469.4368 L182.9142 466.5469" clip-path="url(#clipPath2)"/>
<path d="M0 0 L-12 -5 L-9 0 L-12 5 Z" clip-path="url(#clipPath52)" transform="matrix(0.9893,-0.1461,0.1461,0.9893,191.8176,465.2322)" stroke="none"/>
</g>
<g fill="rgb(180,180,180)" stroke-miterlimit="1.45" transform="matrix(1,0,0,1,503,9)" stroke="rgb(180,180,180)">
<path fill="none" d="M-130.2671 743.6956 L-120.5741 728.9761 L-113.1271 714.8862 L-102.9729 689.0056 L-95.8077 666.8749 L-92.0969 657.4725 L-87.6346 649.3155 L-82.5744 640.93 L-74.6789 630.925 L-68.3908 625.3864 L-59.8613 619.528 L-48.5798 613.3785 L-34.0353 606.9661 L-15.717 600.3194 L6.8859 593.4667 L66.9886 579.2572 L150.3597 564.5648 L252.1664 550.8209" clip-path="url(#clipPath2)"/>
<path d="M0 0 L-12 -5 L-9 0 L-12 5 Z" clip-path="url(#clipPath53)" transform="matrix(0.991,-0.1338,0.1338,0.991,261.0854,549.6168)" stroke="none"/>
</g>
<g fill="rgb(180,180,180)" stroke-miterlimit="1.45" transform="matrix(1,0,0,1,503,9)" stroke="rgb(180,180,180)">
<path fill="none" d="M-146.8083 743.6956 L-152.1268 734.4209 L-156.8582 721.9257 L-165.0369 689.2482 L-179.5992 606.9639 L-187.8922 565.2538 L-192.7093 545.9842 L-198.1327 528.4296 L-204.2816 513.0836 L-211.2753 500.4396 L-219.2333 490.9913 L-228.2748 485.2322 L-232.9273 482.3858 L-237.2272 477.6768 L-241.1224 471.2255 L-244.561 463.1521 L-249.8607 442.6202 L-252.7107 417.0432 L-252.6953 387.3834 L-249.3989 354.6027 L-242.4059 319.6634 L-231.3007 283.5276 L-224.0761 265.3116 L-215.6676 247.1574 L-206.0232 229.185 L-195.091 211.5149 L-182.8191 194.2673 L-169.1554 177.5624 L-154.048 161.5205 L-137.445 146.2619 L-119.2944 131.9068 L-99.5442 118.5756 L-78.1426 106.3884 L-55.0375 95.4655 L-30.177 85.9273 L-3.5092 77.8939 L25.0179 71.4857 L46.5303 68.1903" clip-path="url(#clipPath2)"/>
<path d="M0 0 L-12 -5 L-9 0 L-12 5 Z" clip-path="url(#clipPath54)" transform="matrix(0.9885,-0.1514,0.1514,0.9885,55.4266,66.8275)" stroke="none"/>
</g>
<g fill="rgb(180,180,180)" stroke-miterlimit="1.45" transform="matrix(1,0,0,1,503,9)" stroke="rgb(180,180,180)">
<path fill="none" d="M268.4829 505.2322 L267.9251 444.1677 L266.6005 419.308 L264.021 397.7909 L259.7682 379.2872 L253.424 363.4677 L244.5699 350.0031 L232.7878 338.5643 L217.6591 328.8218 L198.7658 320.4466 L175.6895 313.1093 L148.0118 306.4808 L77.1793 294.0328 L-8.1239 281.7574" clip-path="url(#clipPath2)"/>
<path d="M0 0 L-12 -5 L-9 0 L-12 5 Z" clip-path="url(#clipPath55)" transform="matrix(-0.9898,-0.1424,0.1424,-0.9898,-17.0321,280.4755)" stroke="none"/>
</g>
<g fill="rgb(180,180,180)" stroke-miterlimit="1.45" transform="matrix(1,0,0,1,503,9)" stroke="rgb(180,180,180)">
<path fill="none" d="M132.8815 743.6956 L149.1724 738.3481 L164.4046 729.9417 L178.5702 718.6802 L191.6616 704.7675 L203.6711 688.4077 L214.591 669.8046 L224.4136 649.1621 L233.1312 626.6843 L240.7361 602.575 L247.2206 577.0381 L252.577 550.2777 L256.7975 522.4976 L259.8746 493.9018 L261.8004 464.6942 L262.5674 435.0787 L262.1678 405.2593 L260.5938 375.4398 L257.8379 345.8244 L253.8923 316.6168 L248.7492 288.0209 L242.4011 260.2408 L234.8401 233.4804 L226.0587 207.9436 L216.0491 183.8343 L204.8036 161.3565 L192.3145 140.714 L178.574 122.1109 L163.5746 105.7511 L147.3085 91.8384 L129.7681 80.5769 L110.9455 72.1704 L99.5702 69.146" clip-path="url(#clipPath2)"/>
<path d="M0 0 L-12 -5 L-9 0 L-12 5 Z" clip-path="url(#clipPath56)" transform="matrix(-0.9664,-0.257,0.257,-0.9664,90.8724,66.8334)" stroke="none"/>
</g>
<g fill="rgb(180,180,180)" stroke-miterlimit="1.45" transform="matrix(1,0,0,1,503,9)" stroke="rgb(180,180,180)">
<path fill="none" d="M-29.1899 280.4754 L48.4153 293.8597 L106.7625 305.0961 L148.5704 315.7732 L164.1334 321.4007 L176.5954 327.4867 L186.3008 334.2305 L193.5942 341.8318 L198.8202 350.4898 L202.3233 360.404 L204.4481 371.7738 L205.5393 384.7987 L205.8687 407.6123" clip-path="url(#clipPath2)"/>
<path d="M0 0 L-12 -5 L-9 0 L-12 5 Z" clip-path="url(#clipPath57)" transform="matrix(0.0144,0.9999,-0.9999,0.0144,205.9987,416.6114)" stroke="none"/>
</g>
<g fill="rgb(180,180,180)" stroke-miterlimit="1.45" transform="matrix(1,0,0,1,503,9)" stroke="rgb(180,180,180)">
<path fill="none" d="M-59.6356 280.4839 L-76.9 288.1501 L-92.075 296.1625 L-105.3064 304.4586 L-116.7734 312.9911 L-126.6555 321.7128 L-135.132 330.5764 L-148.5857 348.5401 L-158.5695 366.5038 L-166.5183 384.0891 L-173.8671 400.9177 L-177.8893 408.6312" clip-path="url(#clipPath2)"/>
<path d="M0 0 L-12 -5 L-9 0 L-12 5 Z" clip-path="url(#clipPath58)" transform="matrix(-0.4624,0.8867,-0.8867,-0.4624,-182.0507,416.6114)" stroke="none"/>
</g>
<g fill="rgb(180,180,180)" stroke-miterlimit="1.45" transform="matrix(1,0,0,1,503,9)" stroke="rgb(180,180,180)">
<path fill="none" d="M-143.5 743.6956 L-148.8143 734.4209 L-153.5154 721.9257 L-161.4516 689.2482 L-168.0557 649.6115 L-174.0745 606.9639 L-180.255 565.2538 L-187.3439 528.4296 L-191.4625 513.0836 L-196.0883 500.4396 L-201.3147 490.9913 L-207.235 485.2322 L-218.3229 478.0611 L-222.8089 474.0376 L-226.6552 469.1136 L-229.911 462.8327 L-232.6255 454.7384 L-236.6276 431.2839 L-239.0552 395.0988 L-240.3017 342.5317 L-240.7986 182.6458" clip-path="url(#clipPath2)"/>
<path d="M0 0 L-12 -5 L-9 0 L-12 5 Z" clip-path="url(#clipPath59)" transform="matrix(-0.0031,-1,1,-0.0031,-240.8266,173.6459)" stroke="none"/>
</g>
<g fill="rgb(180,180,180)" stroke-miterlimit="1.45" transform="matrix(1,0,0,1,503,9)" stroke="rgb(180,180,180)">
<path fill="none" d="M-136.8836 743.6956 L-131.9929 688.9357 L-127.7071 648.5568 L-120.7527 604.4639 L-115.9369 582.1853 L-110.0487 560.371 L-102.9527 539.4852 L-94.5139 519.9921 L-84.5971 502.356 L-73.0672 487.0412 L-59.789 474.5118 L-52.3038 469.9305" clip-path="url(#clipPath2)"/>
<path d="M0 0 L-12 -5 L-9 0 L-12 5 Z" clip-path="url(#clipPath60)" transform="matrix(0.8529,-0.522,0.522,0.8529,-44.6275,465.2322)" stroke="none"/>
</g>
<g fill="rgb(180,180,180)" stroke-miterlimit="1.45" transform="matrix(1,0,0,1,503,9)" stroke="rgb(180,180,180)">
<path fill="none" d="M-56.7827 416.6114 L-56.8068 360.404 L-55.8429 327.4867 L-53.0163 305.0961 L-49.4465 289.2957" clip-path="url(#clipPath2)"/>
<path d="M0 0 L-12 -5 L-9 0 L-12 5 Z" clip-path="url(#clipPath61)" transform="matrix(0.2204,-0.9754,0.9754,0.2204,-47.4631,280.5169)" stroke="none"/>
</g>
<g fill="rgb(180,180,180)" stroke-miterlimit="1.45" transform="matrix(1,0,0,1,503,9)" stroke="rgb(180,180,180)">
<path fill="none" d="M-41.3802 280.5148 L-44.2212 327.4867 L-44.5865 407.6115" clip-path="url(#clipPath2)"/>
<path d="M0 0 L-12 -5 L-9 0 L-12 5 Z" clip-path="url(#clipPath62)" transform="matrix(-0.0046,1,-1,-0.0046,-44.6275,416.6114)" stroke="none"/>
</g>
<g fill="rgb(180,180,180)" stroke-miterlimit="1.45" transform="matrix(1,0,0,1,503,9)" stroke="rgb(180,180,180)">
<path fill="none" d="M-235.6864 106.8229 L50.4326 68.0368" clip-path="url(#clipPath2)"/>
<path d="M0 0 L-12 -5 L-9 0 L-12 5 Z" clip-path="url(#clipPath63)" transform="matrix(0.9909,-0.1343,0.1343,0.9909,59.351,66.8278)" stroke="none"/>
</g>
<g fill="rgb(180,180,180)" stroke-miterlimit="1.45" transform="matrix(1,0,0,1,503,9)" stroke="rgb(180,180,180)">
<path fill="none" d="M-172.3266 416.6114 L-165.3474 400.9177 L-158.9039 384.0891 L-151.6037 366.5038 L-142.0547 348.5401 L-128.8647 330.5764 L-120.4693 321.7128 L-110.6416 312.9911 L-99.2075 304.4586 L-85.9931 296.1625 L-70.8242 288.1501 L-61.7862 284.1366" clip-path="url(#clipPath2)"/>
<path d="M0 0 L-12 -5 L-9 0 L-12 5 Z" clip-path="url(#clipPath64)" transform="matrix(0.9139,-0.4059,0.4059,0.9139,-53.5608,280.4839)" stroke="none"/>
</g>
<g fill="rgb(180,180,180)" stroke-miterlimit="1.45" transform="matrix(1,0,0,1,503,9)" stroke="rgb(180,180,180)">
<path fill="none" d="M-211.2232 416.6114 L-219.298 403.0118 L-225.366 390.315 L-229.7139 375.6737 L-232.6285 356.2407 L-234.3963 329.1686 L-235.3041 291.6103 L-235.6571 182.6746" clip-path="url(#clipPath2)"/>
<path d="M0 0 L-12 -5 L-9 0 L-12 5 Z" clip-path="url(#clipPath65)" transform="matrix(-0.0032,-1,1,-0.0032,-235.6863,173.6747)" stroke="none"/>
</g>
<g fill="rgb(180,180,180)" stroke-miterlimit="1.45" transform="matrix(1,0,0,1,503,9)" stroke="rgb(180,180,180)">
<path fill="none" d="M-191.7746 416.5614 L-191.2767 314.2789 L-190.0934 272.7226 L-187.7891 236.8899 L-183.9901 206.2684 L-178.3227 180.3455 L-170.4134 158.609 L-159.8883 140.5465 L-146.3739 125.6456 L-129.4964 113.3938 L-108.8822 103.2789 L-84.1577 94.7884 L-54.9491 87.4099 L-20.8827 80.6311 L54.3953 68.2862" clip-path="url(#clipPath2)"/>
<path d="M0 0 L-12 -5 L-9 0 L-12 5 Z" clip-path="url(#clipPath66)" transform="matrix(0.9868,-0.1618,0.1618,0.9868,63.2767,66.8297)" stroke="none"/>
</g>
<g fill="rgb(180,180,180)" stroke-miterlimit="1.45" transform="matrix(1,0,0,1,503,9)" stroke="rgb(180,180,180)">
<path fill="none" d="M230.3091 416.6114 L227.6395 391.7376 L223.8755 350.7069 L217.2446 298.9049 L212.3 270.6476 L205.9739 241.7171 L198.0447 212.7867 L188.2908 184.5294 L176.4907 157.6186 L162.4228 132.7274 L145.8654 110.529 L136.5839 100.65 L126.597 91.6967 L115.8769 83.7531 L104.396 76.9036 L92.1265 71.2321 L87.5953 69.7053" clip-path="url(#clipPath2)"/>
<path d="M0 0 L-12 -5 L-9 0 L-12 5 Z" clip-path="url(#clipPath67)" transform="matrix(-0.9477,-0.3193,0.3193,-0.9477,79.0664,66.8316)" stroke="none"/>
</g>
<g fill="rgb(180,180,180)" stroke-miterlimit="1.45" transform="matrix(1,0,0,1,503,9)" stroke="rgb(180,180,180)">
<path fill="none" d="M224.2315 465.2322 L222.8785 580.6174" clip-path="url(#clipPath2)"/>
<path d="M0 0 L-12 -5 L-9 0 L-12 5 Z" clip-path="url(#clipPath68)" transform="matrix(-0.0117,0.9999,-0.9999,-0.0117,222.7729,589.6168)" stroke="none"/>
</g>
<g fill="rgb(180,180,180)" stroke-miterlimit="1.45" transform="matrix(1,0,0,1,503,9)" stroke="rgb(180,180,180)">
<path fill="none" d="M218.1539 416.6114 L215.6875 400.9177 L210.9633 384.0891 L206.8708 375.3674 L201.1535 366.5038 L193.4578 357.5456 L183.4303 348.5401 L170.7174 339.5346 L154.9658 330.5764 L135.822 321.7128 L112.9324 312.9911 L85.9435 304.4586 L54.502 296.1625 L18.2544 288.1501 L-14.2635 282.1179" clip-path="url(#clipPath2)"/>
<path d="M0 0 L-12 -5 L-9 0 L-12 5 Z" clip-path="url(#clipPath69)" transform="matrix(-0.9832,-0.1824,0.1824,-0.9832,-23.1125,280.4763)" stroke="none"/>
</g>
<g fill="rgb(180,180,180)" stroke-miterlimit="1.45" transform="matrix(1,0,0,1,503,9)" stroke="rgb(180,180,180)">
<path fill="none" d="M216.1565 589.6168 L216.1301 474.2322" clip-path="url(#clipPath2)"/>
<path d="M0 0 L-12 -5 L-9 0 L-12 5 Z" clip-path="url(#clipPath70)" transform="matrix(-0.0002,-1,1,-0.0002,216.1281,465.2322)" stroke="none"/>
</g>
<g fill="rgb(180,180,180)" stroke-miterlimit="1.45" transform="matrix(1,0,0,1,503,9)" stroke="rgb(180,180,180)">
<path fill="none" d="M196.3071 589.6168 L192.7094 574.4283 L189.8642 566.7122 L185.5991 558.9316 L179.3723 551.0999 L170.642 543.2294 L158.8664 535.3334 L143.5038 527.4244 L124.0124 519.5156 L99.8505 511.6195 L70.4762 503.7491 L35.3479 495.9173 L-6.0764 488.1368 L-54.3383 480.4206 L-164.6142 466.3697" clip-path="url(#clipPath2)"/>
<path d="M0 0 L-12 -5 L-9 0 L-12 5 Z" clip-path="url(#clipPath71)" transform="matrix(-0.992,-0.1264,0.1264,-0.992,-173.5421,465.2322)" stroke="none"/>
</g>
<g fill="rgb(180,180,180)" stroke-miterlimit="1.45" transform="matrix(1,0,0,1,503,9)" stroke="rgb(180,180,180)">
<path fill="none" d="M202.9236 589.6168 L199.6122 574.4283 L194.5063 558.9316 L190.4629 551.0999 L184.9897 543.2294 L177.7599 535.3334 L168.4463 527.4244 L156.7221 519.5156 L142.2601 511.6195 L124.7333 503.7491 L103.8148 495.9173 L79.1775 488.1368 L50.4945 480.4206 L-11.5172 467.1197" clip-path="url(#clipPath2)"/>
<path d="M0 0 L-12 -5 L-9 0 L-12 5 Z" clip-path="url(#clipPath72)" transform="matrix(-0.9778,-0.2097,0.2097,-0.9778,-20.3171,465.2322)" stroke="none"/>
</g>
<g fill="rgb(180,180,180)" stroke-miterlimit="1.45" transform="matrix(1,0,0,1,503,9)" stroke="rgb(180,180,180)">
<path fill="none" d="M-84.1319 743.6956 L-85.2689 717.3044 L-88.2667 693.4752 L-97.3635 650.8578 L-106.4602 610.5539 L-109.458 589.6165 L-110.5951 567.2739 L-110.7418 546.7172 L-111.7685 530.781 L-114.5555 518.2697 L-119.9828 507.9874 L-128.9306 498.7383 L-142.2788 489.3266 L-177.8278 469.5992" clip-path="url(#clipPath2)"/>
<path d="M0 0 L-12 -5 L-9 0 L-12 5 Z" clip-path="url(#clipPath73)" transform="matrix(-0.8744,-0.4852,0.4852,-0.8744,-185.6973,465.2321)" stroke="none"/>
</g>
<g fill="rgb(180,180,180)" stroke-miterlimit="1.45" transform="matrix(1,0,0,1,503,9)" stroke="rgb(180,180,180)">
<path fill="none" d="M-68.2523 743.6956 L45.3383 730.1915 L130.6993 718.1631 L164.054 711.9916 L191.8635 705.336 L214.6321 697.9122 L232.8637 689.4358 L247.0625 679.6225 L257.7327 668.1881 L265.3782 654.8482 L270.5032 639.3186 L273.6118 621.3149 L275.2082 600.5529 L275.7615 558.616" clip-path="url(#clipPath2)"/>
<path d="M0 0 L-12 -5 L-9 0 L-12 5 Z" clip-path="url(#clipPath74)" transform="matrix(0.0132,-0.9999,0.9999,0.0132,275.8803,549.6168)" stroke="none"/>
</g>
<g fill="rgb(180,180,180)" stroke-miterlimit="1.45" transform="matrix(1,0,0,1,503,9)" stroke="rgb(180,180,180)">
<path fill="none" d="M-80.162 743.6956 L-81.228 717.0197 L-84.0384 691.1972 L-92.5665 632.6337 L-97.1213 595.1532 L-101.0947 549.0474 L-103.9051 491.9464 L-104.9711 421.4807 L-105.2063 352.8008 L-106.8529 300.7012 L-108.6465 279.9613 L-111.3221 262.2774 L-115.0563 247.2864 L-120.0254 234.6252 L-126.4059 223.9309 L-134.3741 214.8403 L-144.1065 206.9905 L-155.7795 200.0183 L-169.5695 193.5608 L-185.653 187.2549 L-216.8911 176.5609" clip-path="url(#clipPath2)"/>
<path d="M0 0 L-12 -5 L-9 0 L-12 5 Z" clip-path="url(#clipPath75)" transform="matrix(-0.9461,-0.3239,0.3239,-0.9461,-225.4059,173.6459)" stroke="none"/>
</g>
<g fill="rgb(180,180,180)" stroke-miterlimit="1.45" transform="matrix(1,0,0,1,503,9)" stroke="rgb(180,180,180)">
<path fill="none" d="M-76.1931 743.6695 L-77.2581 716.9153 L-80.0685 690.3626 L-88.5967 625.9572 L-93.1515 582.1133 L-97.1248 526.5144 L-99.9352 456.1649 L-101.0012 368.0692 L-100.6726 281.7594 L-98.3723 216.4112 L-95.8666 190.4945 L-92.1287 168.4944 L-86.9119 149.9696 L-79.97 134.4787 L-71.0564 121.5806 L-59.9246 110.834 L-46.3283 101.7975 L-30.0208 94.0299 L-10.7559 87.09 L11.713 80.5363 L58.4839 68.9872" clip-path="url(#clipPath2)"/>
<path d="M0 0 L-12 -5 L-9 0 L-12 5 Z" clip-path="url(#clipPath76)" transform="matrix(0.9708,-0.2397,0.2397,0.9708,67.2214,66.8296)" stroke="none"/>
</g>
<g fill="rgb(180,180,180)" stroke-miterlimit="1.45" transform="matrix(1,0,0,1,503,9)" stroke="rgb(180,180,180)">
<path fill="none" d="M-72.2222 743.6956 L-54.2317 728.9371 L-38.0766 714.5737 L-20.6022 700.4738 L1.3461 686.5056 L30.9227 672.5374 L71.2823 658.4374 L125.5794 644.074 L188.1551 631.1376" clip-path="url(#clipPath2)"/>
<path d="M0 0 L-12 -5 L-9 0 L-12 5 Z" clip-path="url(#clipPath77)" transform="matrix(0.9793,-0.2025,0.2025,0.9793,196.9688,629.3155)" stroke="none"/>
</g>
<g fill="rgb(180,180,180)" stroke-miterlimit="1.45" transform="matrix(1,0,0,1,503,9)" stroke="rgb(180,180,180)">
<path fill="none" d="M334.2713 803.545 L334.0496 759.1606 L332.4981 725.3185 L330.808 711.7128 L328.2868 699.977 L324.7682 689.8558 L320.0859 681.0942 L314.0737 673.4368 L306.5654 666.6284 L297.3947 660.4138 L286.3955 654.5378 L258.2463 642.7808 L229.2574 632.36" clip-path="url(#clipPath2)"/>
<path d="M0 0 L-12 -5 L-9 0 L-12 5 Z" clip-path="url(#clipPath78)" transform="matrix(-0.941,-0.3383,0.3383,-0.941,220.788,629.3156)" stroke="none"/>
</g>
<g fill="rgb(180,180,180)" stroke-miterlimit="1.45" transform="matrix(1,0,0,1,503,9)" stroke="rgb(180,180,180)">
<path fill="none" d="M10.9057 803.545 L19.6472 783.3654 L28.2728 760.8846 L39.0561 737.025 L45.9673 724.8662 L54.2705 712.7085 L64.2498 700.6671 L76.1894 688.8572 L90.3736 677.3942 L107.0864 666.3932 L126.6122 655.9696 L149.235 646.2386 L175.239 637.3155 L196.2189 631.6586" clip-path="url(#clipPath2)"/>
<path d="M0 0 L-12 -5 L-9 0 L-12 5 Z" clip-path="url(#clipPath79)" transform="matrix(0.9655,-0.2603,0.2603,0.9655,204.9085,629.3156)" stroke="none"/>
</g>
<g fill="rgb(180,180,180)" stroke-miterlimit="1.45" transform="matrix(1,0,0,1,503,9)" stroke="rgb(180,180,180)">
<path fill="none" d="M10.2792 803.545 L14.1767 789.8827 L17.4863 768.3759 L20.1412 740.1616 L22.0746 706.3774 L23.51 626.6478 L21.2583 538.2852 L18.5829 493.7097 L14.7854 450.3878 L9.799 409.4568 L3.557 372.0538 L-4.0074 339.3163 L-12.9609 312.3814 L-17.9795 301.4454 L-23.3704 292.3865 L-28.3834 286.2722 L-28.4618 286.2101" clip-path="url(#clipPath2)"/>
<path d="M0 0 L-12 -5 L-9 0 L-12 5 Z" clip-path="url(#clipPath80)" transform="matrix(-0.784,-0.6208,0.6208,-0.784,-35.5179,280.6233)" stroke="none"/>
</g>
<g fill="rgb(180,180,180)" stroke-miterlimit="1.45" transform="matrix(1,0,0,1,503,9)" stroke="rgb(180,180,180)">
<path fill="none" d="M9.0263 803.545 L-2.3826 793.8053 L-12.3895 783.4044 L-21.1109 772.4868 L-28.6632 761.1971 L-40.727 738.0797 L-49.5133 715.2085 L-60.9822 674.8307 L-65.5294 659.637 L-70.5281 649.3155 L-73.1594 641.1171 L-75.664 624.775 L-81.1707 572.1796 L-88.8031 500.5685 L-100.3159 418.9807 L-108.0758 377.2703 L-117.4638 336.4554 L-128.6993 297.6659 L-142.0016 262.0318 L-157.59 230.6828 L-166.3101 216.9683 L-175.684 204.7489 L-185.739 194.1657 L-196.5027 185.36 L-208.0025 178.4729 L-211.8911 176.9423" clip-path="url(#clipPath2)"/>
<path d="M0 0 L-12 -5 L-9 0 L-12 5 Z" clip-path="url(#clipPath81)" transform="matrix(-0.9305,-0.3663,0.3663,-0.9305,-220.2657,173.6459)" stroke="none"/>
</g>
<g fill="rgb(180,180,180)" stroke-miterlimit="1.45" transform="matrix(1,0,0,1,503,9)" stroke="rgb(180,180,180)">
<path fill="none" d="M128.1872 589.6168 L127.5166 465.4389 L125.9241 415.0443 L122.8229 371.6336 L117.7101 334.5974 L110.0828 303.3263 L105.169 289.6623 L99.4381 277.211 L92.8271 265.8964 L85.2731 255.6422 L76.7133 246.3724 L67.0849 238.0106 L56.3249 230.4809 L44.3706 223.7068 L16.6273 212.1216 L-16.6478 202.6454 L-55.9578 194.6691 L-101.8055 187.5833 L-206.1928 174.7445" clip-path="url(#clipPath2)"/>
<path d="M0 0 L-12 -5 L-9 0 L-12 5 Z" clip-path="url(#clipPath82)" transform="matrix(-0.9925,-0.1221,0.1221,-0.9925,-215.1255,173.6459)" stroke="none"/>
</g>
<g fill="rgb(180,180,180)" stroke-miterlimit="1.45" transform="matrix(1,0,0,1,503,9)" stroke="rgb(180,180,180)">
<path fill="none" d="M-230.5461 173.6459 L-225.9863 193.9296 L-222.3727 222.8592 L-216.6225 295.1286 L-210.5724 367.398 L-206.5838 396.3277 L-203.6875 407.8815" clip-path="url(#clipPath2)"/>
<path d="M0 0 L-12 -5 L-9 0 L-12 5 Z" clip-path="url(#clipPath83)" transform="matrix(0.2432,0.97,-0.97,0.2432,-201.4991,416.6114)" stroke="none"/>
</g>
<g fill="rgb(180,180,180)" stroke-miterlimit="1.45" transform="matrix(1,0,0,1,503,9)" stroke="rgb(180,180,180)">
<path fill="none" d="M-128.613 753.6203 L-95.1168 753.6203" clip-path="url(#clipPath2)"/>
<path d="M0 0 L-12 -5 L-9 0 L-12 5 Z" clip-path="url(#clipPath84)" transform="matrix(1,0,0,1,-86.1168,753.6203)" stroke="none"/>
</g>
<g fill="rgb(180,180,180)" stroke-miterlimit="1.45" transform="matrix(1,0,0,1,503,9)" stroke="rgb(180,180,180)">
<path fill="none" d="M192.9989 609.4661 L162.0379 609.4661" clip-path="url(#clipPath2)"/>
<path d="M0 0 L-12 -5 L-9 0 L-12 5 Z" clip-path="url(#clipPath85)" transform="matrix(-1,0,0,-1,153.0379,609.4661)" stroke="none"/>
</g>
<g fill="rgb(180,180,180)" stroke-miterlimit="1.45" transform="matrix(1,0,0,1,503,9)" stroke="rgb(180,180,180)">
<path fill="none" d="M-148.4624 748.658 L-210.4046 748.658" clip-path="url(#clipPath2)"/>
<path d="M0 0 L-12 -5 L-9 0 L-12 5 Z" clip-path="url(#clipPath86)" transform="matrix(-1,0,0,-1,-219.4046,748.658)" stroke="none"/>
</g>
<g fill="rgb(180,180,180)" stroke-miterlimit="1.45" transform="matrix(1,0,0,1,503,9)" stroke="rgb(180,180,180)">
<path fill="none" d="M-219.4046 758.5826 L-157.4624 758.5826" clip-path="url(#clipPath2)"/>
<path d="M0 0 L-12 -5 L-9 0 L-12 5 Z" clip-path="url(#clipPath87)" transform="matrix(1,0,0,1,-148.4624,758.5826)" stroke="none"/>
</g>
<g fill="rgb(229,20,0)" transform="matrix(1,0,0,1,503,9)" stroke="rgb(229,20,0)">
<rect x="-74.7889" width="66.8229" height="66.8229" y="213.6459" clip-path="url(#clipPath2)" stroke="none"/>
</g>
<g stroke-miterlimit="1.45" font-family="sans-serif" transform="matrix(1,0,0,1,503,9)" stroke-linecap="butt">
<text x="-58.3774" xml:space="preserve" y="251.2117" clip-path="url(#clipPath2)" stroke="none">Leers</text>
<rect x="-74.7889" y="213.6459" clip-path="url(#clipPath2)" fill="none" width="66.8229" height="66.8229" stroke="rgb(51,51,51)"/>
</g>
<g fill="rgb(27,161,226)" transform="matrix(1,0,0,1,503,9)" stroke="rgb(27,161,226)">
<path d="M-6.0562 320.4688 L22.015 376.6114 L-34.1275 376.6114 Z" fill-rule="evenodd" clip-path="url(#clipPath2)" stroke="none"/>
</g>
<g stroke-miterlimit="1.45" font-family="sans-serif" transform="matrix(1,0,0,1,503,9)" stroke-linecap="butt">
<text x="-27.0562" xml:space="preserve" y="352.6944" clip-path="url(#clipPath2)" stroke="none">O'Hara</text>
<path fill="none" d="M-6.0562 320.4688 L22.015 376.6114 L-34.1275 376.6114 Z" fill-rule="evenodd" clip-path="url(#clipPath2)" stroke="rgb(51,51,51)"/>
</g>
<g fill="rgb(27,161,226)" transform="matrix(1,0,0,1,503,9)" stroke="rgb(27,161,226)">
<circle r="9.9247" clip-path="url(#clipPath2)" cx="-298.9795" cy="753.6203" stroke="none"/>
</g>
<g stroke-miterlimit="1.45" font-family="sans-serif" transform="matrix(1,0,0,1,503,9)" stroke-linecap="butt">
<text x="-310.9795" xml:space="preserve" y="757.7746" clip-path="url(#clipPath2)" stroke="none">Bair</text>
<circle fill="none" r="9.9247" clip-path="url(#clipPath2)" cx="-298.9795" cy="753.6203" stroke="rgb(51,51,51)"/>
</g>
<g fill="rgb(27,161,226)" transform="matrix(1,0,0,1,503,9)" stroke="rgb(27,161,226)">
<circle r="1.2529" clip-path="url(#clipPath2)" cx="422.7426" cy="804.7979" stroke="none"/>
</g>
<g stroke-miterlimit="1.45" font-family="sans-serif" transform="matrix(1,0,0,1,503,9)" stroke-linecap="butt">
<text x="398.7426" xml:space="preserve" y="808.9522" clip-path="url(#clipPath2)" stroke="none">Stewart</text>
<circle fill="none" r="1.2529" clip-path="url(#clipPath2)" cx="422.7426" cy="804.7979" stroke="rgb(51,51,51)"/>
</g>
<g fill="rgb(27,161,226)" transform="matrix(1,0,0,1,503,9)" stroke="rgb(27,161,226)">
<circle r="19.8494" clip-path="url(#clipPath2)" cx="212.8483" cy="609.4661" stroke="none"/>
</g>
<g stroke-miterlimit="1.45" font-family="sans-serif" transform="matrix(1,0,0,1,503,9)" stroke-linecap="butt">
<text x="200.8483" xml:space="preserve" y="613.6204" clip-path="url(#clipPath2)" stroke="none">Ruiz</text>
<circle fill="none" r="19.8494" clip-path="url(#clipPath2)" cx="212.8483" cy="609.4661" stroke="rgb(51,51,51)"/>
</g>
<g fill="rgb(96,169,23)" transform="matrix(1,0,0,1,503,9)" stroke="rgb(96,169,23)">
<path d="M75.1101 -0 L108.5216 66.823 L41.6986 66.823 Z" fill-rule="evenodd" clip-path="url(#clipPath2)" stroke="none"/>
</g>
<g stroke-miterlimit="1.45" font-family="sans-serif" transform="matrix(1,0,0,1,503,9)" stroke-linecap="butt">
<text x="55.1101" xml:space="preserve" y="37.5658" clip-path="url(#clipPath2)" stroke="none">Calder</text>
<path fill="none" d="M75.1101 -0 L108.5216 66.823 L41.6986 66.823 Z" fill-rule="evenodd" clip-path="url(#clipPath2)" stroke="rgb(51,51,51)"/>
</g>
<g fill="rgb(96,169,23)" transform="matrix(1,0,0,1,503,9)" stroke="rgb(96,169,23)">
<circle r="33.4115" clip-path="url(#clipPath2)" cx="-235.6864" cy="140.2344" stroke="none"/>
</g>
<g stroke-miterlimit="1.45" font-family="sans-serif" transform="matrix(1,0,0,1,503,9)" stroke-linecap="butt">
<text x="-254.1864" xml:space="preserve" y="144.3887" clip-path="url(#clipPath2)" stroke="none">Harris</text>
<circle fill="none" r="33.4115" clip-path="url(#clipPath2)" cx="-235.6864" cy="140.2344" stroke="rgb(51,51,51)"/>
</g>
<g fill="rgb(96,169,23)" transform="matrix(1,0,0,1,503,9)" stroke="rgb(96,169,23)">
<circle r="22.1923" clip-path="url(#clipPath2)" cx="279.579" cy="527.4245" stroke="none"/>
</g>
<g stroke-miterlimit="1.45" font-family="sans-serif" transform="matrix(1,0,0,1,503,9)" stroke-linecap="butt">
<text x="256.079" xml:space="preserve" y="531.5787" clip-path="url(#clipPath2)" stroke="none">Benson</text>
<circle fill="none" r="22.1923" clip-path="url(#clipPath2)" cx="279.579" cy="527.4245" stroke="rgb(51,51,51)"/>
</g>
<g fill="rgb(96,169,23)" transform="matrix(1,0,0,1,503,9)" stroke="rgb(96,169,23)">
<circle r="1.2529" clip-path="url(#clipPath2)" cx="-328.5274" cy="804.7979" stroke="none"/>
</g>
<g stroke-miterlimit="1.45" font-family="sans-serif" transform="matrix(1,0,0,1,503,9)" stroke-linecap="butt">
<text x="-350.5274" xml:space="preserve" y="808.9522" clip-path="url(#clipPath2)" stroke="none">Church</text>
<circle fill="none" r="1.2529" clip-path="url(#clipPath2)" cx="-328.5274" cy="804.7979" stroke="rgb(51,51,51)"/>
</g>
<g fill="rgb(96,169,23)" transform="matrix(1,0,0,1,503,9)" stroke="rgb(96,169,23)">
<circle r="9.9247" clip-path="url(#clipPath2)" cx="-76.1921" cy="753.6203" stroke="none"/>
</g>
<g stroke-miterlimit="1.45" font-family="sans-serif" transform="matrix(1,0,0,1,503,9)" stroke-linecap="butt">
<text x="-95.6921" xml:space="preserve" y="757.7746" clip-path="url(#clipPath2)" stroke="none">Martin</text>
<circle fill="none" r="9.9247" clip-path="url(#clipPath2)" cx="-76.1921" cy="753.6203" stroke="rgb(51,51,51)"/>
</g>
<g fill="rgb(96,169,23)" transform="matrix(1,0,0,1,503,9)" stroke="rgb(96,169,23)">
<circle r="1.2529" clip-path="url(#clipPath2)" cx="335.211" cy="804.7979" stroke="none"/>
</g>
<g stroke-miterlimit="1.45" font-family="sans-serif" transform="matrix(1,0,0,1,503,9)" stroke-linecap="butt">
<text x="324.211" xml:space="preserve" y="808.9522" clip-path="url(#clipPath2)" stroke="none">Lee</text>
<circle fill="none" r="1.2529" clip-path="url(#clipPath2)" cx="335.211" cy="804.7979" stroke="rgb(51,51,51)"/>
</g>
<g fill="rgb(96,169,23)" transform="matrix(1,0,0,1,503,9)" stroke="rgb(96,169,23)">
<circle r="1.2529" clip-path="url(#clipPath2)" cx="400.2368" cy="804.7979" stroke="none"/>
</g>
<g stroke-miterlimit="1.45" font-family="sans-serif" transform="matrix(1,0,0,1,503,9)" stroke-linecap="butt">
<text x="380.2368" xml:space="preserve" y="808.9522" clip-path="url(#clipPath2)" stroke="none">Wilson</text>
<circle fill="none" r="1.2529" clip-path="url(#clipPath2)" cx="400.2368" cy="804.7979" stroke="rgb(51,51,51)"/>
</g>
<g fill="rgb(96,169,23)" transform="matrix(1,0,0,1,503,9)" stroke="rgb(96,169,23)">
<circle r="1.2529" clip-path="url(#clipPath2)" cx="-373.5392" cy="804.7979" stroke="none"/>
</g>
<g stroke-miterlimit="1.45" font-family="sans-serif" transform="matrix(1,0,0,1,503,9)" stroke-linecap="butt">
<text x="-398.5392" xml:space="preserve" y="808.9522" clip-path="url(#clipPath2)" stroke="none">Swinney</text>
<circle fill="none" r="1.2529" clip-path="url(#clipPath2)" cx="-373.5392" cy="804.7979" stroke="rgb(51,51,51)"/>
</g>
<g fill="rgb(96,169,23)" transform="matrix(1,0,0,1,503,9)" stroke="rgb(96,169,23)">
<circle r="9.9247" clip-path="url(#clipPath2)" cx="378.9768" cy="753.6203" stroke="none"/>
</g>
<g stroke-miterlimit="1.45" font-family="sans-serif" transform="matrix(1,0,0,1,503,9)" stroke-linecap="butt">
<text x="355.4768" xml:space="preserve" y="757.7746" clip-path="url(#clipPath2)" stroke="none">Carlson</text>
<circle fill="none" r="9.9247" clip-path="url(#clipPath2)" cx="378.9768" cy="753.6203" stroke="rgb(51,51,51)"/>
</g>
<g fill="rgb(96,169,23)" transform="matrix(1,0,0,1,503,9)" stroke="rgb(96,169,23)">
<circle r="1.2529" clip-path="url(#clipPath2)" cx="357.7168" cy="804.7979" stroke="none"/>
</g>
<g stroke-miterlimit="1.45" font-family="sans-serif" transform="matrix(1,0,0,1,503,9)" stroke-linecap="butt">
<text x="325.2168" xml:space="preserve" y="808.9522" clip-path="url(#clipPath2)" stroke="none">Haberman</text>
<circle fill="none" r="1.2529" clip-path="url(#clipPath2)" cx="357.7168" cy="804.7979" stroke="rgb(51,51,51)"/>
</g>
<g fill="rgb(96,169,23)" transform="matrix(1,0,0,1,503,9)" stroke="rgb(96,169,23)">
<circle r="1.2529" clip-path="url(#clipPath2)" cx="-396.045" cy="804.7979" stroke="none"/>
</g>
<g stroke-miterlimit="1.45" font-family="sans-serif" transform="matrix(1,0,0,1,503,9)" stroke-linecap="butt">
<text x="-410.545" xml:space="preserve" y="808.9522" clip-path="url(#clipPath2)" stroke="none">Fiola</text>
<circle fill="none" r="1.2529" clip-path="url(#clipPath2)" cx="-396.045" cy="804.7979" stroke="rgb(51,51,51)"/>
</g>
<g fill="rgb(240,163,10)" transform="matrix(1,0,0,1,503,9)" stroke="rgb(240,163,10)">
<path d="M-38.5499 416.6113 L-14.2395 465.2322 L-62.8603 465.2322 Z" fill-rule="evenodd" clip-path="url(#clipPath2)" stroke="none"/>
</g>
<g stroke-miterlimit="1.45" font-family="sans-serif" transform="matrix(1,0,0,1,503,9)" stroke-linecap="butt">
<text x="-53.5499" xml:space="preserve" y="445.076" clip-path="url(#clipPath2)" stroke="none">Lang</text>
<path fill="none" d="M-38.5499 416.6113 L-14.2395 465.2322 L-62.8603 465.2322 Z" fill-rule="evenodd" clip-path="url(#clipPath2)" stroke="rgb(51,51,51)"/>
</g>
<g fill="rgb(240,163,10)" transform="matrix(1,0,0,1,503,9)" stroke="rgb(240,163,10)">
<circle r="1.2529" clip-path="url(#clipPath2)" cx="47.42" cy="804.7979" stroke="none"/>
</g>
<g stroke-miterlimit="1.45" font-family="sans-serif" transform="matrix(1,0,0,1,503,9)" stroke-linecap="butt">
<text x="28.92" xml:space="preserve" y="808.9522" clip-path="url(#clipPath2)" stroke="none">Muller</text>
<circle fill="none" r="1.2529" clip-path="url(#clipPath2)" cx="47.42" cy="804.7979" stroke="rgb(51,51,51)"/>
</g>
<g fill="rgb(240,163,10)" transform="matrix(1,0,0,1,503,9)" stroke="rgb(240,163,10)">
<circle r="1.2529" clip-path="url(#clipPath2)" cx="9.966" cy="804.7979" stroke="none"/>
</g>
<g stroke-miterlimit="1.45" font-family="sans-serif" transform="matrix(1,0,0,1,503,9)" stroke-linecap="butt">
<text x="-4.534" xml:space="preserve" y="808.9522" clip-path="url(#clipPath2)" stroke="none">Jules</text>
<circle fill="none" r="1.2529" clip-path="url(#clipPath2)" cx="9.966" cy="804.7979" stroke="rgb(51,51,51)"/>
</g>
<g fill="rgb(240,163,10)" transform="matrix(1,0,0,1,503,9)" stroke="rgb(240,163,10)">
<circle r="1.2529" clip-path="url(#clipPath2)" cx="-351.0333" cy="804.7979" stroke="none"/>
</g>
<g stroke-miterlimit="1.45" font-family="sans-serif" transform="matrix(1,0,0,1,503,9)" stroke-linecap="butt">
<text x="-369.0333" xml:space="preserve" y="808.9522" clip-path="url(#clipPath2)" stroke="none">Baker</text>
<circle fill="none" r="1.2529" clip-path="url(#clipPath2)" cx="-351.0333" cy="804.7979" stroke="rgb(51,51,51)"/>
</g>
<g fill="rgb(240,163,10)" transform="matrix(1,0,0,1,503,9)" stroke="rgb(240,163,10)">
<circle r="9.9247" clip-path="url(#clipPath2)" cx="-138.5377" cy="753.6203" stroke="none"/>
</g>
<g stroke-miterlimit="1.45" font-family="sans-serif" transform="matrix(1,0,0,1,503,9)" stroke-linecap="butt">
<text x="-158.0377" xml:space="preserve" y="757.7746" clip-path="url(#clipPath2)" stroke="none">Daven</text>
<circle fill="none" r="9.9247" clip-path="url(#clipPath2)" cx="-138.5377" cy="753.6203" stroke="rgb(51,51,51)"/>
</g>
<g fill="rgb(240,163,10)" transform="matrix(1,0,0,1,503,9)" stroke="rgb(240,163,10)">
<circle r="24.3104" clip-path="url(#clipPath2)" cx="-191.7749" cy="440.9218" stroke="none"/>
</g>
<g stroke-miterlimit="1.45" font-family="sans-serif" transform="matrix(1,0,0,1,503,9)" stroke-linecap="butt">
<text x="-216.2749" xml:space="preserve" y="445.076" clip-path="url(#clipPath2)" stroke="none">Thomas</text>
<circle fill="none" r="24.3104" clip-path="url(#clipPath2)" cx="-191.7749" cy="440.9218" stroke="rgb(51,51,51)"/>
</g>
<g fill="rgb(240,163,10)" transform="matrix(1,0,0,1,503,9)" stroke="rgb(240,163,10)">
<circle r="9.9247" clip-path="url(#clipPath2)" cx="-229.3293" cy="753.6203" stroke="none"/>
</g>
<g stroke-miterlimit="1.45" font-family="sans-serif" transform="matrix(1,0,0,1,503,9)" stroke-linecap="butt">
<text x="-253.8293" xml:space="preserve" y="757.7746" clip-path="url(#clipPath2)" stroke="none">Zanado</text>
<circle fill="none" r="9.9247" clip-path="url(#clipPath2)" cx="-229.3293" cy="753.6203" stroke="rgb(51,51,51)"/>
</g>
<g fill="rgb(170,0,255)" transform="matrix(1,0,0,1,503,9)" stroke="rgb(170,0,255)">
<path d="M212.0763 416.6113 L236.3867 465.2322 L187.7659 465.2322 Z" fill-rule="evenodd" clip-path="url(#clipPath2)" stroke="none"/>
</g>
<g stroke-miterlimit="1.45" font-family="sans-serif" transform="matrix(1,0,0,1,503,9)" stroke-linecap="butt">
<text x="195.0763" xml:space="preserve" y="445.076" clip-path="url(#clipPath2)" stroke="none">Stern</text>
<path fill="none" d="M212.0763 416.6113 L236.3867 465.2322 L187.7659 465.2322 Z" fill-rule="evenodd" clip-path="url(#clipPath2)" stroke="rgb(51,51,51)"/>
</g>
<g fill="rgb(170,0,255)" transform="matrix(1,0,0,1,503,9)" stroke="rgb(170,0,255)">
<circle r="19.8494" clip-path="url(#clipPath2)" cx="133.1495" cy="609.4661" stroke="none"/>
</g>
<g stroke-miterlimit="1.45" font-family="sans-serif" transform="matrix(1,0,0,1,503,9)" stroke-linecap="butt">
<text x="114.1495" xml:space="preserve" y="613.6204" clip-path="url(#clipPath2)" stroke="none">Huttle</text>
<circle fill="none" r="19.8494" clip-path="url(#clipPath2)" cx="133.1495" cy="609.4661" stroke="rgb(51,51,51)"/>
</g>
<g fill="rgb(170,0,255)" transform="matrix(1,0,0,1,503,9)" stroke="rgb(170,0,255)">
<circle r="9.9247" clip-path="url(#clipPath2)" cx="124.9417" cy="753.6203" stroke="none"/>
</g>
<g stroke-miterlimit="1.45" font-family="sans-serif" transform="matrix(1,0,0,1,503,9)" stroke-linecap="butt">
<text x="105.9417" xml:space="preserve" y="757.7746" clip-path="url(#clipPath2)" stroke="none">Atkins</text>
<circle fill="none" r="9.9247" clip-path="url(#clipPath2)" cx="124.9417" cy="753.6203" stroke="rgb(51,51,51)"/>
</g>
<g fill="rgb(170,0,255)" transform="matrix(1,0,0,1,503,9)" stroke="rgb(170,0,255)">
<circle r="1.2529" clip-path="url(#clipPath2)" cx="264.8111" cy="804.7979" stroke="none"/>
</g>
<g stroke-miterlimit="1.45" font-family="sans-serif" transform="matrix(1,0,0,1,503,9)" stroke-linecap="butt">
<text x="247.8111" xml:space="preserve" y="808.9522" clip-path="url(#clipPath2)" stroke="none">Kibler</text>
<circle fill="none" r="1.2529" clip-path="url(#clipPath2)" cx="264.8111" cy="804.7979" stroke="rgb(51,51,51)"/>
</g>
<g fill="rgb(96,169,23)" transform="matrix(1,0,0,1,503,9)" stroke="rgb(96,169,23)">
<circle r="17.1901" clip-path="url(#clipPath2)" cx="75.1101" cy="686.5055" stroke="none"/>
</g>
<g stroke-miterlimit="1.45" font-family="sans-serif" transform="matrix(1,0,0,1,503,9)" stroke-linecap="butt">
<text x="51.1101" xml:space="preserve" y="690.6599" clip-path="url(#clipPath2)" stroke="none">Fleming</text>
<circle fill="none" r="17.1901" clip-path="url(#clipPath2)" cx="75.1101" cy="686.5055" stroke="rgb(51,51,51)"/>
</g>
</g>
</svg>
