<?xml version="1.0" encoding="iso-8859-1"?>
<!-- Generator: Adobe Illustrator 16.0.0, SVG Export Plug-In . SVG Version: 6.00 Build 0)  -->
<!DOCTYPE svg PUBLIC "-//W3C//DTD SVG 1.1//EN" "http://www.w3.org/Graphics/SVG/1.1/DTD/svg11.dtd">
<svg version="1.1" xmlns="http://www.w3.org/2000/svg" xmlns:xlink="http://www.w3.org/1999/xlink" x="0px" y="0px"
	 width="31.144px" height="26.375px" viewBox="0 0 31.144 26.375" style="enable-background:new 0 0 31.144 26.375;"
	 xml:space="preserve">
<g id="c100_arrow">
	<path style="fill:#000000;" d="M0,13.188c0.001,1.702,1.383,3.081,3.085,3.083l17.528-0.002l-4.738,4.739
		c-1.283,1.284-1.349,3.301-0.145,4.507c1.205,1.201,3.222,1.138,4.507-0.146l9.896-9.898c1.287-1.283,1.352-3.301,0.146-4.506
		c-0.033-0.029-0.068-0.051-0.1-0.08c-0.041-0.043-0.07-0.094-0.113-0.139l-9.764-9.762c-1.268-1.266-3.27-1.316-4.474-0.111
		c-1.205,1.205-1.153,3.208,0.111,4.476l4.755,4.754H3.085C1.381,10.102,0,11.482,0,13.188z"/>
</g>
<g id="Capa_1">
</g>
</svg>
